%
M48
M72
T01C0.0200
T02C0.0400
T03C0.0551
T04C0.0866
%
T01
X14203Y8440
X15203Y7940
X14633Y7670
X14433Y6460
X15368Y6505
X16373Y7640
X17543Y8260
X17513Y9100
X17653Y9730
X15773Y8640
X16353Y8480
X21073Y6780
X21723Y9190
T02
X20433Y10600
X19433Y10600
X18433Y10600
X17433Y10600
X16433Y10600
X15433Y10600
X14433Y10600
X13433Y10600
X12433Y10600
X11433Y10600
X10433Y10600
X10133Y5650
X11133Y5650
X12133Y5650
X13133Y5650
X14133Y5650
X15133Y5650
X16133Y5650
X17133Y5650
X18133Y5650
X19133Y5650
X20133Y5650
T03
X3683Y7164
X3683Y8936
T04
X2913Y2470
X2873Y13940
X24263Y14160
X24243Y2330
M30
