G75*
G70*
%OFA0B0*%
%FSLAX24Y24*%
%IPPOS*%
%LPD*%
%AMOC8*
5,1,8,0,0,1.08239X$1,22.5*
%
%ADD10C,0.0000*%
%ADD11C,0.0051*%
%ADD12C,0.0060*%
%ADD13R,0.0150X0.0450*%
%ADD14R,0.0217X0.0472*%
%ADD15R,0.0551X0.0630*%
%ADD16R,0.0315X0.0472*%
%ADD17R,0.0300X0.0600*%
%ADD18C,0.0080*%
%ADD19R,0.0250X0.0500*%
%ADD20R,0.0500X0.0250*%
%ADD21R,0.0472X0.0472*%
%ADD22C,0.0740*%
%ADD23R,0.0335X0.0669*%
%ADD24R,0.2378X0.1339*%
%ADD25R,0.1181X0.0276*%
%ADD26R,0.0472X0.0315*%
%ADD27R,0.0512X0.0591*%
%ADD28C,0.0100*%
%ADD29C,0.0360*%
%ADD30C,0.0200*%
%ADD31C,0.0160*%
D10*
X001633Y001150D02*
X001633Y015146D01*
X025503Y015146D01*
X025503Y001150D01*
X001633Y001150D01*
X002480Y002470D02*
X002482Y002511D01*
X002488Y002552D01*
X002498Y002592D01*
X002511Y002631D01*
X002528Y002668D01*
X002549Y002704D01*
X002573Y002738D01*
X002600Y002769D01*
X002629Y002797D01*
X002662Y002823D01*
X002696Y002845D01*
X002733Y002864D01*
X002771Y002879D01*
X002811Y002891D01*
X002851Y002899D01*
X002892Y002903D01*
X002934Y002903D01*
X002975Y002899D01*
X003015Y002891D01*
X003055Y002879D01*
X003093Y002864D01*
X003129Y002845D01*
X003164Y002823D01*
X003197Y002797D01*
X003226Y002769D01*
X003253Y002738D01*
X003277Y002704D01*
X003298Y002668D01*
X003315Y002631D01*
X003328Y002592D01*
X003338Y002552D01*
X003344Y002511D01*
X003346Y002470D01*
X003344Y002429D01*
X003338Y002388D01*
X003328Y002348D01*
X003315Y002309D01*
X003298Y002272D01*
X003277Y002236D01*
X003253Y002202D01*
X003226Y002171D01*
X003197Y002143D01*
X003164Y002117D01*
X003130Y002095D01*
X003093Y002076D01*
X003055Y002061D01*
X003015Y002049D01*
X002975Y002041D01*
X002934Y002037D01*
X002892Y002037D01*
X002851Y002041D01*
X002811Y002049D01*
X002771Y002061D01*
X002733Y002076D01*
X002697Y002095D01*
X002662Y002117D01*
X002629Y002143D01*
X002600Y002171D01*
X002573Y002202D01*
X002549Y002236D01*
X002528Y002272D01*
X002511Y002309D01*
X002498Y002348D01*
X002488Y002388D01*
X002482Y002429D01*
X002480Y002470D01*
X003407Y007164D02*
X003409Y007197D01*
X003415Y007229D01*
X003424Y007260D01*
X003437Y007290D01*
X003454Y007318D01*
X003474Y007344D01*
X003497Y007368D01*
X003522Y007388D01*
X003550Y007406D01*
X003579Y007420D01*
X003610Y007430D01*
X003642Y007437D01*
X003675Y007440D01*
X003708Y007439D01*
X003740Y007434D01*
X003771Y007425D01*
X003802Y007413D01*
X003830Y007397D01*
X003857Y007378D01*
X003881Y007356D01*
X003902Y007331D01*
X003921Y007304D01*
X003936Y007275D01*
X003947Y007245D01*
X003955Y007213D01*
X003959Y007180D01*
X003959Y007148D01*
X003955Y007115D01*
X003947Y007083D01*
X003936Y007053D01*
X003921Y007024D01*
X003902Y006997D01*
X003881Y006972D01*
X003857Y006950D01*
X003830Y006931D01*
X003802Y006915D01*
X003771Y006903D01*
X003740Y006894D01*
X003708Y006889D01*
X003675Y006888D01*
X003642Y006891D01*
X003610Y006898D01*
X003579Y006908D01*
X003550Y006922D01*
X003522Y006940D01*
X003497Y006960D01*
X003474Y006984D01*
X003454Y007010D01*
X003437Y007038D01*
X003424Y007068D01*
X003415Y007099D01*
X003409Y007131D01*
X003407Y007164D01*
X003407Y008936D02*
X003409Y008969D01*
X003415Y009001D01*
X003424Y009032D01*
X003437Y009062D01*
X003454Y009090D01*
X003474Y009116D01*
X003497Y009140D01*
X003522Y009160D01*
X003550Y009178D01*
X003579Y009192D01*
X003610Y009202D01*
X003642Y009209D01*
X003675Y009212D01*
X003708Y009211D01*
X003740Y009206D01*
X003771Y009197D01*
X003802Y009185D01*
X003830Y009169D01*
X003857Y009150D01*
X003881Y009128D01*
X003902Y009103D01*
X003921Y009076D01*
X003936Y009047D01*
X003947Y009017D01*
X003955Y008985D01*
X003959Y008952D01*
X003959Y008920D01*
X003955Y008887D01*
X003947Y008855D01*
X003936Y008825D01*
X003921Y008796D01*
X003902Y008769D01*
X003881Y008744D01*
X003857Y008722D01*
X003830Y008703D01*
X003802Y008687D01*
X003771Y008675D01*
X003740Y008666D01*
X003708Y008661D01*
X003675Y008660D01*
X003642Y008663D01*
X003610Y008670D01*
X003579Y008680D01*
X003550Y008694D01*
X003522Y008712D01*
X003497Y008732D01*
X003474Y008756D01*
X003454Y008782D01*
X003437Y008810D01*
X003424Y008840D01*
X003415Y008871D01*
X003409Y008903D01*
X003407Y008936D01*
X002440Y013940D02*
X002442Y013981D01*
X002448Y014022D01*
X002458Y014062D01*
X002471Y014101D01*
X002488Y014138D01*
X002509Y014174D01*
X002533Y014208D01*
X002560Y014239D01*
X002589Y014267D01*
X002622Y014293D01*
X002656Y014315D01*
X002693Y014334D01*
X002731Y014349D01*
X002771Y014361D01*
X002811Y014369D01*
X002852Y014373D01*
X002894Y014373D01*
X002935Y014369D01*
X002975Y014361D01*
X003015Y014349D01*
X003053Y014334D01*
X003089Y014315D01*
X003124Y014293D01*
X003157Y014267D01*
X003186Y014239D01*
X003213Y014208D01*
X003237Y014174D01*
X003258Y014138D01*
X003275Y014101D01*
X003288Y014062D01*
X003298Y014022D01*
X003304Y013981D01*
X003306Y013940D01*
X003304Y013899D01*
X003298Y013858D01*
X003288Y013818D01*
X003275Y013779D01*
X003258Y013742D01*
X003237Y013706D01*
X003213Y013672D01*
X003186Y013641D01*
X003157Y013613D01*
X003124Y013587D01*
X003090Y013565D01*
X003053Y013546D01*
X003015Y013531D01*
X002975Y013519D01*
X002935Y013511D01*
X002894Y013507D01*
X002852Y013507D01*
X002811Y013511D01*
X002771Y013519D01*
X002731Y013531D01*
X002693Y013546D01*
X002657Y013565D01*
X002622Y013587D01*
X002589Y013613D01*
X002560Y013641D01*
X002533Y013672D01*
X002509Y013706D01*
X002488Y013742D01*
X002471Y013779D01*
X002458Y013818D01*
X002448Y013858D01*
X002442Y013899D01*
X002440Y013940D01*
X023830Y014160D02*
X023832Y014201D01*
X023838Y014242D01*
X023848Y014282D01*
X023861Y014321D01*
X023878Y014358D01*
X023899Y014394D01*
X023923Y014428D01*
X023950Y014459D01*
X023979Y014487D01*
X024012Y014513D01*
X024046Y014535D01*
X024083Y014554D01*
X024121Y014569D01*
X024161Y014581D01*
X024201Y014589D01*
X024242Y014593D01*
X024284Y014593D01*
X024325Y014589D01*
X024365Y014581D01*
X024405Y014569D01*
X024443Y014554D01*
X024479Y014535D01*
X024514Y014513D01*
X024547Y014487D01*
X024576Y014459D01*
X024603Y014428D01*
X024627Y014394D01*
X024648Y014358D01*
X024665Y014321D01*
X024678Y014282D01*
X024688Y014242D01*
X024694Y014201D01*
X024696Y014160D01*
X024694Y014119D01*
X024688Y014078D01*
X024678Y014038D01*
X024665Y013999D01*
X024648Y013962D01*
X024627Y013926D01*
X024603Y013892D01*
X024576Y013861D01*
X024547Y013833D01*
X024514Y013807D01*
X024480Y013785D01*
X024443Y013766D01*
X024405Y013751D01*
X024365Y013739D01*
X024325Y013731D01*
X024284Y013727D01*
X024242Y013727D01*
X024201Y013731D01*
X024161Y013739D01*
X024121Y013751D01*
X024083Y013766D01*
X024047Y013785D01*
X024012Y013807D01*
X023979Y013833D01*
X023950Y013861D01*
X023923Y013892D01*
X023899Y013926D01*
X023878Y013962D01*
X023861Y013999D01*
X023848Y014038D01*
X023838Y014078D01*
X023832Y014119D01*
X023830Y014160D01*
X023810Y002330D02*
X023812Y002371D01*
X023818Y002412D01*
X023828Y002452D01*
X023841Y002491D01*
X023858Y002528D01*
X023879Y002564D01*
X023903Y002598D01*
X023930Y002629D01*
X023959Y002657D01*
X023992Y002683D01*
X024026Y002705D01*
X024063Y002724D01*
X024101Y002739D01*
X024141Y002751D01*
X024181Y002759D01*
X024222Y002763D01*
X024264Y002763D01*
X024305Y002759D01*
X024345Y002751D01*
X024385Y002739D01*
X024423Y002724D01*
X024459Y002705D01*
X024494Y002683D01*
X024527Y002657D01*
X024556Y002629D01*
X024583Y002598D01*
X024607Y002564D01*
X024628Y002528D01*
X024645Y002491D01*
X024658Y002452D01*
X024668Y002412D01*
X024674Y002371D01*
X024676Y002330D01*
X024674Y002289D01*
X024668Y002248D01*
X024658Y002208D01*
X024645Y002169D01*
X024628Y002132D01*
X024607Y002096D01*
X024583Y002062D01*
X024556Y002031D01*
X024527Y002003D01*
X024494Y001977D01*
X024460Y001955D01*
X024423Y001936D01*
X024385Y001921D01*
X024345Y001909D01*
X024305Y001901D01*
X024264Y001897D01*
X024222Y001897D01*
X024181Y001901D01*
X024141Y001909D01*
X024101Y001921D01*
X024063Y001936D01*
X024027Y001955D01*
X023992Y001977D01*
X023959Y002003D01*
X023930Y002031D01*
X023903Y002062D01*
X023879Y002096D01*
X023858Y002132D01*
X023841Y002169D01*
X023828Y002208D01*
X023818Y002248D01*
X023812Y002289D01*
X023810Y002330D01*
D11*
X025503Y001150D02*
X028891Y001150D01*
X028123Y001150D02*
X028226Y002174D01*
X028249Y002174D02*
X028123Y001150D01*
X028021Y002174D01*
X027998Y002174D02*
X028249Y002174D01*
X028174Y002174D02*
X028123Y001150D01*
X028072Y002174D01*
X027998Y002174D02*
X028123Y001150D01*
X028123Y015146D01*
X028226Y014122D01*
X028249Y014122D02*
X028123Y015146D01*
X028021Y014122D01*
X027998Y014122D02*
X028249Y014122D01*
X028174Y014122D02*
X028123Y015146D01*
X028072Y014122D01*
X027998Y014122D02*
X028123Y015146D01*
X028891Y015146D02*
X025503Y015146D01*
X025503Y017778D01*
X025503Y017010D02*
X024480Y017112D01*
X024480Y017136D02*
X024480Y016884D01*
X025503Y017010D01*
X024480Y016908D01*
X024480Y016959D02*
X025503Y017010D01*
X024480Y017061D01*
X024480Y017136D02*
X025503Y017010D01*
X001633Y017010D01*
X002657Y016908D01*
X002657Y016884D02*
X001633Y017010D01*
X002657Y017112D01*
X002657Y017136D02*
X002657Y016884D01*
X002657Y016959D02*
X001633Y017010D01*
X002657Y017061D01*
X002657Y017136D02*
X001633Y017010D01*
X001633Y017778D02*
X001633Y015146D01*
D12*
X012621Y017266D02*
X013048Y017693D01*
X013048Y017800D01*
X012942Y017907D01*
X012728Y017907D01*
X012621Y017800D01*
X013266Y017373D02*
X013373Y017373D01*
X013373Y017266D01*
X013266Y017266D01*
X013266Y017373D01*
X013048Y017266D02*
X012621Y017266D01*
X013588Y017373D02*
X013695Y017266D01*
X013909Y017266D01*
X014015Y017373D01*
X014015Y017480D01*
X013909Y017586D01*
X013802Y017586D01*
X013909Y017586D02*
X014015Y017693D01*
X014015Y017800D01*
X013909Y017907D01*
X013695Y017907D01*
X013588Y017800D01*
X014233Y017800D02*
X014233Y017693D01*
X014340Y017586D01*
X014660Y017586D01*
X014660Y017373D02*
X014660Y017800D01*
X014553Y017907D01*
X014340Y017907D01*
X014233Y017800D01*
X014233Y017373D02*
X014340Y017266D01*
X014553Y017266D01*
X014660Y017373D01*
X027547Y008874D02*
X027547Y008447D01*
X027227Y008768D01*
X027867Y008768D01*
X027867Y008232D02*
X027760Y008232D01*
X027760Y008125D01*
X027867Y008125D01*
X027867Y008232D01*
X027867Y007908D02*
X027867Y007480D01*
X027867Y007694D02*
X027227Y007694D01*
X027440Y007480D01*
D13*
X016858Y007045D03*
X016608Y007045D03*
X016358Y007045D03*
X016108Y007045D03*
X015858Y007045D03*
X015608Y007045D03*
X015358Y007045D03*
X015108Y007045D03*
X014858Y007045D03*
X014608Y007045D03*
X014608Y009155D03*
X014858Y009155D03*
X015108Y009155D03*
X015358Y009155D03*
X015608Y009155D03*
X015858Y009155D03*
X016108Y009155D03*
X016358Y009155D03*
X016608Y009155D03*
X016858Y009155D03*
D14*
X023459Y011418D03*
X024207Y011418D03*
X024207Y012442D03*
X023833Y012442D03*
X023459Y012442D03*
D15*
X023102Y010340D03*
X024204Y010340D03*
D16*
X024238Y009240D03*
X023529Y009240D03*
X013618Y008440D03*
X012909Y008440D03*
X012909Y007670D03*
X013618Y007670D03*
D17*
X023033Y008050D03*
X024533Y008050D03*
X024533Y005850D03*
X023033Y005850D03*
D18*
X019833Y006800D02*
X019833Y007100D01*
X018243Y006890D02*
X017943Y006890D01*
X018183Y008750D02*
X018183Y009050D01*
X013733Y014200D02*
X013433Y014200D01*
D19*
X013383Y014200D03*
X013783Y014200D03*
X017893Y006890D03*
X018293Y006890D03*
D20*
X019833Y006750D03*
X019833Y007150D03*
X018183Y008700D03*
X018183Y009100D03*
D21*
X020480Y013220D03*
X021307Y013220D03*
X010447Y014200D03*
X009620Y014200D03*
X021470Y004400D03*
X022297Y004400D03*
X005347Y003950D03*
X004520Y003950D03*
D22*
X010133Y005650D03*
X011133Y005650D03*
X012133Y005650D03*
X013133Y005650D03*
X014133Y005650D03*
X015133Y005650D03*
X016133Y005650D03*
X017133Y005650D03*
X018133Y005650D03*
X019133Y005650D03*
X020133Y005650D03*
X020433Y010600D03*
X019433Y010600D03*
X018433Y010600D03*
X017433Y010600D03*
X016433Y010600D03*
X015433Y010600D03*
X014433Y010600D03*
X013433Y010600D03*
X012433Y010600D03*
X011433Y010600D03*
X010433Y010600D03*
D23*
X011921Y011890D03*
X013496Y011890D03*
X015070Y011890D03*
X014283Y013071D03*
X015858Y013071D03*
X016645Y011890D03*
X018220Y011890D03*
X019007Y013071D03*
X017433Y013071D03*
X012708Y013071D03*
X012708Y004410D03*
X014283Y004410D03*
X015858Y004410D03*
X017433Y004410D03*
X019007Y004410D03*
X018220Y003229D03*
X016645Y003229D03*
X015070Y003229D03*
X013496Y003229D03*
X011921Y003229D03*
D24*
X003912Y005373D03*
X003912Y010727D03*
D25*
X006439Y008788D03*
X006439Y008296D03*
X006439Y007804D03*
X006439Y007312D03*
D26*
X008283Y007396D03*
X008283Y008104D03*
X008283Y008996D03*
X008283Y009704D03*
D27*
X009559Y009050D03*
X010307Y009050D03*
X010307Y008150D03*
X009559Y008150D03*
X007157Y003950D03*
X006409Y003950D03*
X022149Y013190D03*
X022897Y013190D03*
X012057Y014200D03*
X011309Y014200D03*
X023159Y004400D03*
X023907Y004400D03*
D28*
X023903Y004404D01*
X023903Y008300D01*
X024238Y008634D01*
X024418Y008636D02*
X025053Y008636D01*
X025053Y008538D02*
X024395Y008538D01*
X024418Y008560D02*
X024418Y008709D01*
X024312Y008814D01*
X024163Y008814D01*
X023829Y008480D01*
X023723Y008375D01*
X023723Y004825D01*
X023598Y004825D01*
X023533Y004761D01*
X023469Y004825D01*
X022850Y004825D01*
X022773Y004749D01*
X022773Y004580D01*
X022663Y004580D01*
X022663Y004690D01*
X022587Y004766D01*
X022007Y004766D01*
X021930Y004690D01*
X021930Y004110D01*
X022007Y004034D01*
X022587Y004034D01*
X022663Y004110D01*
X022663Y004220D01*
X022773Y004220D01*
X022773Y004051D01*
X022850Y003975D01*
X023469Y003975D01*
X023533Y004039D01*
X023598Y003975D01*
X024217Y003975D01*
X024293Y004051D01*
X024293Y004749D01*
X024217Y004825D01*
X024083Y004825D01*
X024083Y008225D01*
X024235Y008378D01*
X024233Y008370D01*
X024233Y008075D01*
X024508Y008075D01*
X024508Y008025D01*
X024233Y008025D01*
X024233Y007730D01*
X024244Y007692D01*
X024263Y007658D01*
X024291Y007630D01*
X024325Y007610D01*
X024364Y007600D01*
X024508Y007600D01*
X024508Y008025D01*
X024558Y008025D01*
X024558Y007600D01*
X024703Y007600D01*
X024741Y007610D01*
X024775Y007630D01*
X024803Y007658D01*
X024823Y007692D01*
X024833Y007730D01*
X024833Y008025D01*
X024558Y008025D01*
X024558Y008075D01*
X024508Y008075D01*
X024508Y008500D01*
X024364Y008500D01*
X024356Y008498D01*
X024418Y008560D01*
X024508Y008439D02*
X024558Y008439D01*
X024558Y008500D02*
X024558Y008075D01*
X024833Y008075D01*
X024833Y008370D01*
X024823Y008408D01*
X024803Y008442D01*
X024775Y008470D01*
X024741Y008490D01*
X024703Y008500D01*
X024558Y008500D01*
X024558Y008341D02*
X024508Y008341D01*
X024508Y008242D02*
X024558Y008242D01*
X024558Y008144D02*
X024508Y008144D01*
X024508Y008045D02*
X024083Y008045D01*
X024083Y007947D02*
X024233Y007947D01*
X024233Y007848D02*
X024083Y007848D01*
X024083Y007750D02*
X024233Y007750D01*
X024270Y007651D02*
X024083Y007651D01*
X024083Y007553D02*
X025053Y007553D01*
X025053Y007651D02*
X024796Y007651D01*
X024833Y007750D02*
X025053Y007750D01*
X025053Y007848D02*
X024833Y007848D01*
X024833Y007947D02*
X025053Y007947D01*
X025053Y008045D02*
X024558Y008045D01*
X024558Y007947D02*
X024508Y007947D01*
X024508Y007848D02*
X024558Y007848D01*
X024558Y007750D02*
X024508Y007750D01*
X024508Y007651D02*
X024558Y007651D01*
X024083Y007454D02*
X025053Y007454D01*
X025053Y007356D02*
X024083Y007356D01*
X024083Y007257D02*
X025053Y007257D01*
X025053Y007159D02*
X024083Y007159D01*
X024083Y007060D02*
X025053Y007060D01*
X025053Y006962D02*
X024083Y006962D01*
X024083Y006863D02*
X025053Y006863D01*
X025053Y006765D02*
X024083Y006765D01*
X024083Y006666D02*
X025053Y006666D01*
X025053Y006568D02*
X024083Y006568D01*
X024083Y006469D02*
X025053Y006469D01*
X025053Y006371D02*
X024083Y006371D01*
X024083Y006272D02*
X024321Y006272D01*
X024329Y006280D02*
X024253Y006204D01*
X024253Y005496D01*
X024329Y005420D01*
X024737Y005420D01*
X024813Y005496D01*
X024813Y006204D01*
X024737Y006280D01*
X024329Y006280D01*
X024253Y006174D02*
X024083Y006174D01*
X024083Y006075D02*
X024253Y006075D01*
X024253Y005977D02*
X024083Y005977D01*
X024083Y005878D02*
X024253Y005878D01*
X024253Y005780D02*
X024083Y005780D01*
X024083Y005681D02*
X024253Y005681D01*
X024253Y005583D02*
X024083Y005583D01*
X024083Y005484D02*
X024265Y005484D01*
X024083Y005386D02*
X025053Y005386D01*
X025053Y005484D02*
X024801Y005484D01*
X024813Y005583D02*
X025053Y005583D01*
X025053Y005681D02*
X024813Y005681D01*
X024813Y005780D02*
X025053Y005780D01*
X025053Y005878D02*
X024813Y005878D01*
X024813Y005977D02*
X025053Y005977D01*
X025053Y006075D02*
X024813Y006075D01*
X024813Y006174D02*
X025053Y006174D01*
X025053Y006272D02*
X024745Y006272D01*
X023723Y006272D02*
X023245Y006272D01*
X023237Y006280D02*
X022829Y006280D01*
X022753Y006204D01*
X022753Y005496D01*
X022829Y005420D01*
X023237Y005420D01*
X023313Y005496D01*
X023313Y006204D01*
X023237Y006280D01*
X023313Y006174D02*
X023723Y006174D01*
X023723Y006075D02*
X023313Y006075D01*
X023313Y005977D02*
X023723Y005977D01*
X023723Y005878D02*
X023313Y005878D01*
X023313Y005780D02*
X023723Y005780D01*
X023723Y005681D02*
X023313Y005681D01*
X023313Y005583D02*
X023723Y005583D01*
X023723Y005484D02*
X023301Y005484D01*
X023723Y005386D02*
X021663Y005386D01*
X021663Y005484D02*
X022765Y005484D01*
X022753Y005583D02*
X021663Y005583D01*
X021663Y005681D02*
X022753Y005681D01*
X022753Y005780D02*
X021628Y005780D01*
X021663Y005745D02*
X021558Y005850D01*
X021558Y005850D01*
X020958Y006450D01*
X019408Y006450D01*
X019073Y006785D01*
X019073Y007125D01*
X018968Y007230D01*
X018568Y007630D01*
X019349Y007630D01*
X019574Y007405D01*
X019529Y007405D01*
X019453Y007329D01*
X019453Y006971D01*
X019474Y006950D01*
X019453Y006929D01*
X019453Y006571D01*
X019529Y006495D01*
X020137Y006495D01*
X020212Y006570D01*
X020845Y006570D01*
X020898Y006517D01*
X021012Y006470D01*
X021135Y006470D01*
X021249Y006517D01*
X021336Y006604D01*
X021383Y006718D01*
X021383Y006842D01*
X021336Y006956D01*
X021249Y007043D01*
X021135Y007090D01*
X021012Y007090D01*
X020898Y007043D01*
X020811Y006956D01*
X020800Y006930D01*
X020212Y006930D01*
X020192Y006950D01*
X020213Y006971D01*
X020213Y007329D01*
X020137Y007405D01*
X020013Y007405D01*
X020013Y007475D01*
X019498Y007990D01*
X017702Y007990D01*
X017719Y007997D01*
X017806Y008084D01*
X017853Y008198D01*
X017853Y008315D01*
X017983Y008445D01*
X018487Y008445D01*
X018563Y008521D01*
X018563Y008879D01*
X018542Y008900D01*
X018563Y008921D01*
X018563Y009279D01*
X018487Y009355D01*
X017879Y009355D01*
X017804Y009280D01*
X017772Y009280D01*
X017689Y009363D01*
X017575Y009410D01*
X017452Y009410D01*
X017338Y009363D01*
X017323Y009348D01*
X017323Y009645D01*
X017344Y009666D01*
X017391Y009554D01*
X017478Y009467D01*
X017592Y009420D01*
X017715Y009420D01*
X017829Y009467D01*
X017912Y009550D01*
X018649Y009550D01*
X018753Y009445D01*
X018753Y008745D01*
X018859Y008640D01*
X019209Y008290D01*
X022539Y008290D01*
X022753Y008075D01*
X022753Y007696D01*
X022829Y007620D01*
X023237Y007620D01*
X023313Y007696D01*
X023313Y008404D01*
X023237Y008480D01*
X022858Y008480D01*
X022793Y008545D01*
X022688Y008650D01*
X019358Y008650D01*
X019113Y008895D01*
X019113Y009595D01*
X018903Y009805D01*
X018828Y009880D01*
X019798Y009880D01*
X020008Y010090D01*
X020110Y010192D01*
X020161Y010155D01*
X020234Y010118D01*
X020312Y010093D01*
X020383Y010081D01*
X020383Y010550D01*
X020483Y010550D01*
X020483Y010081D01*
X020555Y010093D01*
X020633Y010118D01*
X020706Y010155D01*
X020772Y010203D01*
X020830Y010261D01*
X020878Y010327D01*
X020915Y010400D01*
X020941Y010478D01*
X020952Y010550D01*
X020483Y010550D01*
X020483Y010650D01*
X020383Y010650D01*
X020383Y011119D01*
X020312Y011107D01*
X020234Y011082D01*
X020161Y011045D01*
X020113Y011010D01*
X020113Y012599D01*
X020368Y012854D01*
X020770Y012854D01*
X020846Y012930D01*
X020846Y013510D01*
X020770Y013586D01*
X020190Y013586D01*
X020114Y013510D01*
X020114Y013108D01*
X019753Y012748D01*
X019753Y010987D01*
X019717Y011024D01*
X019613Y011067D01*
X019613Y012720D01*
X019305Y013028D01*
X019305Y013460D01*
X019231Y013533D01*
X019318Y013620D01*
X022549Y013620D01*
X022553Y013615D01*
X022553Y013581D01*
X022523Y013551D01*
X022459Y013615D01*
X021840Y013615D01*
X021763Y013539D01*
X021763Y013400D01*
X021673Y013400D01*
X021673Y013510D01*
X021597Y013586D01*
X021017Y013586D01*
X020940Y013510D01*
X020940Y012930D01*
X021017Y012854D01*
X021597Y012854D01*
X021673Y012930D01*
X021673Y013040D01*
X021763Y013040D01*
X021763Y012841D01*
X021840Y012765D01*
X022459Y012765D01*
X022523Y012829D01*
X022588Y012765D01*
X023207Y012765D01*
X023283Y012841D01*
X023283Y013010D01*
X024259Y013010D01*
X024463Y012805D01*
X024463Y011705D01*
X024446Y011687D01*
X024446Y011708D01*
X024369Y011784D01*
X024045Y011784D01*
X023969Y011708D01*
X023969Y011128D01*
X024024Y011073D01*
X024024Y010785D01*
X023875Y010785D01*
X023799Y010709D01*
X023799Y009971D01*
X023875Y009895D01*
X024534Y009895D01*
X024610Y009971D01*
X024610Y010709D01*
X024534Y010785D01*
X024384Y010785D01*
X024384Y011067D01*
X024446Y011128D01*
X024446Y011238D01*
X024506Y011238D01*
X024611Y011344D01*
X024823Y011555D01*
X024823Y012955D01*
X024718Y013060D01*
X024483Y013295D01*
X024764Y013411D01*
X025012Y013660D01*
X025053Y013760D01*
X025053Y002682D01*
X024992Y002830D01*
X024744Y003079D01*
X024419Y003213D01*
X024068Y003213D01*
X023743Y003079D01*
X023495Y002830D01*
X023360Y002506D01*
X023360Y002154D01*
X023495Y001830D01*
X023724Y001600D01*
X003121Y001600D01*
X003414Y001721D01*
X003662Y001970D01*
X003796Y002294D01*
X003796Y002646D01*
X003662Y002970D01*
X003414Y003219D01*
X003089Y003353D01*
X002738Y003353D01*
X002413Y003219D01*
X002165Y002970D01*
X002083Y002774D01*
X002083Y013540D01*
X002125Y013440D01*
X002373Y013191D01*
X002698Y013057D01*
X003049Y013057D01*
X003374Y013191D01*
X003622Y013440D01*
X003756Y013764D01*
X003756Y014116D01*
X003622Y014440D01*
X003374Y014689D01*
X003356Y014696D01*
X023551Y014696D01*
X023515Y014660D01*
X023380Y014336D01*
X023380Y013984D01*
X023515Y013660D01*
X023763Y013411D01*
X023863Y013370D01*
X023283Y013370D01*
X023283Y013539D01*
X023207Y013615D01*
X022913Y013615D01*
X022913Y013765D01*
X022808Y013870D01*
X022698Y013980D01*
X019169Y013980D01*
X019063Y013875D01*
X018933Y013744D01*
X018827Y013639D01*
X018827Y013536D01*
X018786Y013536D01*
X018710Y013460D01*
X018710Y012683D01*
X018786Y012607D01*
X019217Y012607D01*
X019253Y012571D01*
X019253Y011067D01*
X019150Y011024D01*
X019009Y010883D01*
X018933Y010699D01*
X018857Y010883D01*
X018717Y011024D01*
X018533Y011100D01*
X018334Y011100D01*
X018150Y011024D01*
X018009Y010883D01*
X017933Y010699D01*
X017857Y010883D01*
X017717Y011024D01*
X017613Y011067D01*
X017613Y012607D01*
X017654Y012607D01*
X017730Y012683D01*
X017730Y013460D01*
X017654Y013536D01*
X017211Y013536D01*
X017135Y013460D01*
X017135Y012683D01*
X017211Y012607D01*
X017253Y012607D01*
X017253Y011067D01*
X017150Y011024D01*
X017009Y010883D01*
X016933Y010699D01*
X016857Y010883D01*
X016825Y010915D01*
X016825Y011426D01*
X016866Y011426D01*
X016942Y011502D01*
X016942Y012279D01*
X016866Y012355D01*
X016424Y012355D01*
X016348Y012279D01*
X016348Y011502D01*
X016424Y011426D01*
X016465Y011426D01*
X016465Y011100D01*
X016334Y011100D01*
X016150Y011024D01*
X016009Y010883D01*
X015933Y010699D01*
X015891Y010803D01*
X015976Y010803D01*
X015932Y010844D02*
X016038Y010950D01*
X016038Y012607D01*
X016079Y012607D01*
X016155Y012683D01*
X016155Y013460D01*
X016079Y013536D01*
X015637Y013536D01*
X015560Y013460D01*
X015560Y012683D01*
X015637Y012607D01*
X015678Y012607D01*
X015678Y011099D01*
X015636Y011057D01*
X015533Y011100D01*
X015334Y011100D01*
X015150Y011024D01*
X015009Y010883D01*
X014933Y010699D01*
X014891Y010803D01*
X014976Y010803D01*
X014891Y010803D02*
X015145Y011057D01*
X015250Y011162D01*
X015250Y011426D01*
X015291Y011426D01*
X015368Y011502D01*
X015368Y012279D01*
X015291Y012355D01*
X015250Y012355D01*
X015250Y013378D01*
X014413Y014215D01*
X014308Y014320D01*
X014038Y014320D01*
X014038Y014504D01*
X013962Y014580D01*
X013604Y014580D01*
X013583Y014559D01*
X013562Y014580D01*
X013204Y014580D01*
X013128Y014504D01*
X013128Y014380D01*
X012443Y014380D01*
X012443Y014549D01*
X012367Y014625D01*
X011748Y014625D01*
X011683Y014561D01*
X011619Y014625D01*
X011000Y014625D01*
X010923Y014549D01*
X010923Y014380D01*
X010813Y014380D01*
X010813Y014490D01*
X010737Y014566D01*
X010157Y014566D01*
X010080Y014490D01*
X010080Y013910D01*
X010157Y013834D01*
X010737Y013834D01*
X010813Y013910D01*
X010813Y014020D01*
X010923Y014020D01*
X010923Y013851D01*
X011000Y013775D01*
X011619Y013775D01*
X011683Y013839D01*
X011748Y013775D01*
X012367Y013775D01*
X012443Y013851D01*
X012443Y014020D01*
X013128Y014020D01*
X013128Y013896D01*
X013204Y013820D01*
X013562Y013820D01*
X013583Y013841D01*
X013604Y013820D01*
X013962Y013820D01*
X014038Y013896D01*
X014038Y013960D01*
X014159Y013960D01*
X014890Y013228D01*
X014890Y012355D01*
X014849Y012355D01*
X014773Y012279D01*
X014773Y011502D01*
X014849Y011426D01*
X014890Y011426D01*
X014890Y011312D01*
X014636Y011057D01*
X014533Y011100D01*
X014334Y011100D01*
X014150Y011024D01*
X014009Y010883D01*
X013933Y010699D01*
X013891Y010803D01*
X013976Y010803D01*
X013891Y010803D02*
X014357Y011270D01*
X014463Y011375D01*
X014463Y012607D01*
X014504Y012607D01*
X014580Y012683D01*
X014580Y013460D01*
X014504Y013536D01*
X014062Y013536D01*
X013986Y013460D01*
X013986Y012683D01*
X014062Y012607D01*
X014103Y012607D01*
X014103Y011524D01*
X013636Y011057D01*
X013533Y011100D01*
X013334Y011100D01*
X013150Y011024D01*
X013009Y010883D01*
X012933Y010699D01*
X012891Y010803D01*
X012976Y010803D01*
X012891Y010803D02*
X013513Y011426D01*
X013717Y011426D01*
X013793Y011502D01*
X013793Y012279D01*
X013717Y012355D01*
X013274Y012355D01*
X013198Y012279D01*
X013198Y011619D01*
X012636Y011057D01*
X012533Y011100D01*
X012334Y011100D01*
X012307Y011089D01*
X012788Y011570D01*
X012893Y011675D01*
X012893Y012607D01*
X012929Y012607D01*
X013005Y012683D01*
X013005Y013460D01*
X012929Y013536D01*
X012487Y013536D01*
X012411Y013460D01*
X012411Y012683D01*
X012487Y012607D01*
X012533Y012607D01*
X012533Y011825D01*
X012236Y011527D01*
X012238Y011536D01*
X012238Y011856D01*
X011954Y011856D01*
X011954Y011406D01*
X012108Y011406D01*
X012117Y011408D01*
X011725Y011016D01*
X011717Y011024D01*
X011533Y011100D01*
X011334Y011100D01*
X011150Y011024D01*
X011009Y010883D01*
X010941Y010718D01*
X010941Y010722D01*
X010915Y010800D01*
X010878Y010873D01*
X010830Y010939D01*
X010772Y010997D01*
X010706Y011045D01*
X010633Y011082D01*
X010555Y011107D01*
X010483Y011119D01*
X010483Y010650D01*
X010383Y010650D01*
X010383Y010550D01*
X009915Y010550D01*
X009926Y010478D01*
X009951Y010400D01*
X009989Y010327D01*
X010037Y010261D01*
X010095Y010203D01*
X010161Y010155D01*
X010234Y010118D01*
X010312Y010093D01*
X010383Y010081D01*
X010383Y010550D01*
X010483Y010550D01*
X010483Y010081D01*
X010555Y010093D01*
X010633Y010118D01*
X010706Y010155D01*
X010772Y010203D01*
X010830Y010261D01*
X010878Y010327D01*
X010915Y010400D01*
X010941Y010478D01*
X010941Y010482D01*
X011009Y010317D01*
X011150Y010176D01*
X011334Y010100D01*
X011533Y010100D01*
X011717Y010176D01*
X011857Y010317D01*
X011933Y010501D01*
X011933Y010699D01*
X011929Y010711D01*
X011945Y010727D01*
X011933Y010699D01*
X011933Y010501D01*
X012009Y010317D01*
X012150Y010176D01*
X012334Y010100D01*
X012397Y010100D01*
X011217Y008920D01*
X010693Y008920D01*
X010693Y009399D01*
X010617Y009475D01*
X009998Y009475D01*
X009933Y009411D01*
X009869Y009475D01*
X009250Y009475D01*
X009173Y009399D01*
X009173Y008919D01*
X009135Y008880D01*
X008858Y008880D01*
X008668Y009070D01*
X008650Y009088D01*
X008650Y009207D01*
X008573Y009283D01*
X007993Y009283D01*
X007917Y009207D01*
X007917Y009176D01*
X007904Y009176D01*
X007799Y009070D01*
X007609Y008880D01*
X007160Y008880D01*
X007160Y008980D01*
X007084Y009056D01*
X005795Y009056D01*
X005719Y008980D01*
X005719Y008597D01*
X005773Y008542D01*
X005719Y008488D01*
X005719Y008104D01*
X005760Y008064D01*
X005757Y008062D01*
X005729Y008034D01*
X005709Y008000D01*
X005699Y007961D01*
X005699Y007823D01*
X006420Y007823D01*
X006420Y007785D01*
X005699Y007785D01*
X005699Y007646D01*
X005709Y007608D01*
X005729Y007574D01*
X005757Y007546D01*
X005760Y007544D01*
X005719Y007503D01*
X005719Y007120D01*
X005795Y007044D01*
X006382Y007044D01*
X006927Y006498D01*
X006927Y004375D01*
X006848Y004375D01*
X006783Y004311D01*
X006719Y004375D01*
X006100Y004375D01*
X006023Y004299D01*
X006023Y004130D01*
X005713Y004130D01*
X005713Y004240D01*
X005637Y004316D01*
X005057Y004316D01*
X004980Y004240D01*
X004980Y003660D01*
X005057Y003584D01*
X005637Y003584D01*
X005713Y003660D01*
X005713Y003770D01*
X006023Y003770D01*
X006023Y003601D01*
X006100Y003525D01*
X006719Y003525D01*
X006783Y003589D01*
X006848Y003525D01*
X007467Y003525D01*
X007543Y003601D01*
X007543Y004299D01*
X007467Y004375D01*
X007387Y004375D01*
X007387Y006038D01*
X008006Y005420D01*
X009687Y005420D01*
X009709Y005367D01*
X009850Y005226D01*
X010034Y005150D01*
X010233Y005150D01*
X010417Y005226D01*
X010557Y005367D01*
X010633Y005551D01*
X010633Y005749D01*
X010557Y005933D01*
X010417Y006074D01*
X010363Y006096D01*
X010363Y006405D01*
X012601Y008643D01*
X012601Y008469D01*
X012880Y008469D01*
X012880Y008411D01*
X012938Y008411D01*
X012938Y008469D01*
X013216Y008469D01*
X013216Y008696D01*
X013206Y008734D01*
X013197Y008750D01*
X013350Y008750D01*
X013330Y008730D01*
X013330Y008150D01*
X013406Y008074D01*
X013829Y008074D01*
X013905Y008150D01*
X013905Y008260D01*
X013945Y008260D01*
X014028Y008177D01*
X014142Y008130D01*
X014265Y008130D01*
X014379Y008177D01*
X014466Y008264D01*
X014512Y008376D01*
X014893Y007995D01*
X014893Y007878D01*
X014905Y007850D01*
X014892Y007850D01*
X014809Y007933D01*
X014695Y007980D01*
X014572Y007980D01*
X014458Y007933D01*
X014375Y007850D01*
X013905Y007850D01*
X013905Y007960D01*
X013829Y008036D01*
X013406Y008036D01*
X013330Y007960D01*
X013330Y007380D01*
X013406Y007304D01*
X013829Y007304D01*
X013905Y007380D01*
X013905Y007490D01*
X014375Y007490D01*
X014458Y007407D01*
X014478Y007399D01*
X014403Y007324D01*
X014403Y006770D01*
X014372Y006770D01*
X014258Y006723D01*
X014171Y006636D01*
X014123Y006522D01*
X014123Y006398D01*
X014171Y006284D01*
X014258Y006197D01*
X014372Y006150D01*
X014495Y006150D01*
X014609Y006197D01*
X014690Y006279D01*
X014784Y006185D01*
X014863Y006105D01*
X014882Y006087D01*
X014850Y006074D01*
X014709Y005933D01*
X014633Y005749D01*
X014557Y005933D01*
X014417Y006074D01*
X014233Y006150D01*
X014034Y006150D01*
X013850Y006074D01*
X013709Y005933D01*
X013633Y005749D01*
X013557Y005933D01*
X013417Y006074D01*
X013233Y006150D01*
X013034Y006150D01*
X012850Y006074D01*
X012709Y005933D01*
X012633Y005749D01*
X012557Y005933D01*
X012417Y006074D01*
X012233Y006150D01*
X012034Y006150D01*
X011850Y006074D01*
X011709Y005933D01*
X011633Y005749D01*
X011557Y005933D01*
X011417Y006074D01*
X011233Y006150D01*
X011034Y006150D01*
X010850Y006074D01*
X010709Y005933D01*
X010633Y005749D01*
X010633Y005551D01*
X010709Y005367D01*
X010850Y005226D01*
X011034Y005150D01*
X011233Y005150D01*
X011336Y005193D01*
X011753Y004775D01*
X011753Y003693D01*
X011700Y003693D01*
X011623Y003617D01*
X011623Y002840D01*
X011700Y002764D01*
X012142Y002764D01*
X012218Y002840D01*
X012218Y003617D01*
X012142Y003693D01*
X012113Y003693D01*
X012113Y004925D01*
X011591Y005447D01*
X011633Y005551D01*
X011633Y005749D01*
X011633Y005551D01*
X011709Y005367D01*
X011850Y005226D01*
X012034Y005150D01*
X012233Y005150D01*
X012336Y005193D01*
X012528Y005001D01*
X012528Y004874D01*
X012487Y004874D01*
X012411Y004798D01*
X012411Y004021D01*
X012487Y003945D01*
X012929Y003945D01*
X013005Y004021D01*
X013005Y004798D01*
X012929Y004874D01*
X012888Y004874D01*
X012888Y005150D01*
X012783Y005255D01*
X012591Y005447D01*
X012633Y005551D01*
X012633Y005749D01*
X012633Y005551D01*
X012709Y005367D01*
X012850Y005226D01*
X013034Y005150D01*
X013233Y005150D01*
X013336Y005193D01*
X013353Y005175D01*
X013353Y003693D01*
X013274Y003693D01*
X013198Y003617D01*
X013198Y002840D01*
X013274Y002764D01*
X013717Y002764D01*
X013793Y002840D01*
X013793Y003617D01*
X013717Y003693D01*
X013713Y003693D01*
X013713Y005325D01*
X013591Y005447D01*
X013633Y005551D01*
X013633Y005749D01*
X013633Y005551D01*
X013709Y005367D01*
X013850Y005226D01*
X014034Y005150D01*
X014153Y005150D01*
X014153Y004874D01*
X014062Y004874D01*
X013986Y004798D01*
X013986Y004021D01*
X014062Y003945D01*
X014504Y003945D01*
X014580Y004021D01*
X014580Y004798D01*
X014513Y004865D01*
X014513Y005323D01*
X014557Y005367D01*
X014633Y005551D01*
X014633Y005749D01*
X014633Y005551D01*
X014709Y005367D01*
X014850Y005226D01*
X014953Y005183D01*
X014953Y003693D01*
X014849Y003693D01*
X014773Y003617D01*
X014773Y002840D01*
X014849Y002764D01*
X015291Y002764D01*
X015368Y002840D01*
X015368Y003617D01*
X015313Y003672D01*
X015313Y005183D01*
X015417Y005226D01*
X015557Y005367D01*
X015633Y005551D01*
X015633Y005749D01*
X015557Y005933D01*
X015490Y006000D01*
X015776Y006000D01*
X015709Y005933D01*
X015633Y005749D01*
X015633Y005551D01*
X015676Y005447D01*
X015653Y005425D01*
X015653Y004874D01*
X015637Y004874D01*
X015560Y004798D01*
X015560Y004021D01*
X015637Y003945D01*
X016079Y003945D01*
X016155Y004021D01*
X016155Y004798D01*
X016079Y004874D01*
X016013Y004874D01*
X016013Y005159D01*
X016034Y005150D01*
X016233Y005150D01*
X016417Y005226D01*
X016557Y005367D01*
X016633Y005551D01*
X016633Y005749D01*
X016591Y005853D01*
X016818Y006080D01*
X016865Y006080D01*
X016850Y006074D01*
X016709Y005933D01*
X016633Y005749D01*
X016633Y005551D01*
X016676Y005447D01*
X016453Y005225D01*
X016453Y003693D01*
X016424Y003693D01*
X016348Y003617D01*
X016348Y002840D01*
X016424Y002764D01*
X016866Y002764D01*
X016942Y002840D01*
X016942Y003617D01*
X016866Y003693D01*
X016813Y003693D01*
X016813Y005075D01*
X016931Y005193D01*
X017034Y005150D01*
X017233Y005150D01*
X017417Y005226D01*
X017557Y005367D01*
X017633Y005551D01*
X017633Y005749D01*
X017557Y005933D01*
X017417Y006074D01*
X017402Y006080D01*
X017865Y006080D01*
X017850Y006074D01*
X017709Y005933D01*
X017633Y005749D01*
X017633Y005551D01*
X017676Y005447D01*
X017253Y005025D01*
X017253Y004874D01*
X017211Y004874D01*
X017135Y004798D01*
X017135Y004021D01*
X017211Y003945D01*
X017654Y003945D01*
X017730Y004021D01*
X017730Y004798D01*
X017654Y004874D01*
X017613Y004874D01*
X017613Y004875D01*
X017931Y005193D01*
X018034Y005150D01*
X018233Y005150D01*
X018417Y005226D01*
X018557Y005367D01*
X018633Y005551D01*
X018633Y005749D01*
X018557Y005933D01*
X018417Y006074D01*
X018233Y006150D01*
X018208Y006150D01*
X018368Y006310D01*
X018473Y006415D01*
X018473Y006511D01*
X018548Y006586D01*
X018548Y007140D01*
X018713Y006975D01*
X018713Y006635D01*
X019199Y006150D01*
X019034Y006150D01*
X018850Y006074D01*
X018709Y005933D01*
X018633Y005749D01*
X018633Y005551D01*
X018676Y005447D01*
X018053Y004825D01*
X018053Y003693D01*
X017999Y003693D01*
X017923Y003617D01*
X017923Y002840D01*
X017999Y002764D01*
X018441Y002764D01*
X018517Y002840D01*
X018517Y003617D01*
X018441Y003693D01*
X018413Y003693D01*
X018413Y004675D01*
X018931Y005193D01*
X019034Y005150D01*
X019233Y005150D01*
X019417Y005226D01*
X019557Y005367D01*
X019633Y005551D01*
X019633Y005749D01*
X019557Y005933D01*
X019417Y006074D01*
X019378Y006090D01*
X019889Y006090D01*
X019850Y006074D01*
X019709Y005933D01*
X019633Y005749D01*
X019633Y005551D01*
X019676Y005447D01*
X019103Y004874D01*
X018786Y004874D01*
X018710Y004798D01*
X018710Y004021D01*
X018786Y003945D01*
X019228Y003945D01*
X019305Y004021D01*
X019305Y004567D01*
X019931Y005193D01*
X020034Y005150D01*
X020233Y005150D01*
X020417Y005226D01*
X020557Y005367D01*
X020633Y005551D01*
X020633Y005749D01*
X020557Y005933D01*
X020417Y006074D01*
X020378Y006090D01*
X020809Y006090D01*
X021303Y005595D01*
X021303Y004766D01*
X021180Y004766D01*
X021104Y004690D01*
X021104Y004110D01*
X021180Y004034D01*
X021760Y004034D01*
X021836Y004110D01*
X021836Y004690D01*
X021760Y004766D01*
X021663Y004766D01*
X021663Y005745D01*
X021530Y005878D02*
X022753Y005878D01*
X022753Y005977D02*
X021431Y005977D01*
X021333Y006075D02*
X022753Y006075D01*
X022753Y006174D02*
X021234Y006174D01*
X021136Y006272D02*
X022821Y006272D01*
X023723Y006371D02*
X021037Y006371D01*
X020883Y006270D02*
X021483Y005670D01*
X021483Y004413D01*
X021470Y004400D01*
X021104Y004401D02*
X019305Y004401D01*
X019305Y004499D02*
X021104Y004499D01*
X021104Y004598D02*
X019335Y004598D01*
X019434Y004696D02*
X021110Y004696D01*
X021303Y004795D02*
X019532Y004795D01*
X019631Y004893D02*
X021303Y004893D01*
X021303Y004992D02*
X019729Y004992D01*
X019828Y005090D02*
X021303Y005090D01*
X021303Y005189D02*
X020326Y005189D01*
X020477Y005287D02*
X021303Y005287D01*
X021303Y005386D02*
X020565Y005386D01*
X020606Y005484D02*
X021303Y005484D01*
X021303Y005583D02*
X020633Y005583D01*
X020633Y005681D02*
X021218Y005681D01*
X021119Y005780D02*
X020621Y005780D01*
X020580Y005878D02*
X021021Y005878D01*
X020922Y005977D02*
X020514Y005977D01*
X020414Y006075D02*
X020824Y006075D01*
X020883Y006270D02*
X019333Y006270D01*
X018893Y006710D01*
X018893Y007050D01*
X018473Y007470D01*
X017413Y007470D01*
X016988Y007045D01*
X016858Y007045D01*
X016613Y007050D02*
X016608Y007045D01*
X016613Y007050D02*
X016613Y007360D01*
X017063Y007810D01*
X019423Y007810D01*
X019833Y007400D01*
X019833Y007150D01*
X020013Y007454D02*
X023723Y007454D01*
X023723Y007356D02*
X020187Y007356D01*
X020213Y007257D02*
X023723Y007257D01*
X023723Y007159D02*
X020213Y007159D01*
X020213Y007060D02*
X020939Y007060D01*
X020816Y006962D02*
X020204Y006962D01*
X019833Y006750D02*
X021043Y006750D01*
X021073Y006780D01*
X021362Y006666D02*
X023723Y006666D01*
X023723Y006568D02*
X021299Y006568D01*
X021383Y006765D02*
X023723Y006765D01*
X023723Y006863D02*
X021374Y006863D01*
X021330Y006962D02*
X023723Y006962D01*
X023723Y007060D02*
X021207Y007060D01*
X020847Y006568D02*
X020210Y006568D01*
X019853Y006075D02*
X019414Y006075D01*
X019514Y005977D02*
X019753Y005977D01*
X019687Y005878D02*
X019580Y005878D01*
X019621Y005780D02*
X019646Y005780D01*
X019633Y005681D02*
X019633Y005681D01*
X019633Y005583D02*
X019633Y005583D01*
X019606Y005484D02*
X019661Y005484D01*
X019614Y005386D02*
X019565Y005386D01*
X019516Y005287D02*
X019477Y005287D01*
X019417Y005189D02*
X019326Y005189D01*
X019319Y005090D02*
X018828Y005090D01*
X018926Y005189D02*
X018941Y005189D01*
X018729Y004992D02*
X019220Y004992D01*
X019122Y004893D02*
X018631Y004893D01*
X018710Y004795D02*
X018532Y004795D01*
X018434Y004696D02*
X018710Y004696D01*
X018710Y004598D02*
X018413Y004598D01*
X018413Y004499D02*
X018710Y004499D01*
X018710Y004401D02*
X018413Y004401D01*
X018413Y004302D02*
X018710Y004302D01*
X018710Y004204D02*
X018413Y004204D01*
X018413Y004105D02*
X018710Y004105D01*
X018725Y004007D02*
X018413Y004007D01*
X018413Y003908D02*
X025053Y003908D01*
X025053Y003810D02*
X018413Y003810D01*
X018413Y003711D02*
X025053Y003711D01*
X025053Y003613D02*
X018517Y003613D01*
X018517Y003514D02*
X025053Y003514D01*
X025053Y003416D02*
X018517Y003416D01*
X018517Y003317D02*
X025053Y003317D01*
X025053Y003219D02*
X018517Y003219D01*
X018517Y003120D02*
X023843Y003120D01*
X023686Y003022D02*
X018517Y003022D01*
X018517Y002923D02*
X023587Y002923D01*
X023492Y002825D02*
X018502Y002825D01*
X018233Y003250D02*
X018233Y004750D01*
X019133Y005650D01*
X018661Y005484D02*
X018606Y005484D01*
X018614Y005386D02*
X018565Y005386D01*
X018516Y005287D02*
X018477Y005287D01*
X018417Y005189D02*
X018326Y005189D01*
X018319Y005090D02*
X017828Y005090D01*
X017926Y005189D02*
X017941Y005189D01*
X017729Y004992D02*
X018220Y004992D01*
X018122Y004893D02*
X017631Y004893D01*
X017730Y004795D02*
X018053Y004795D01*
X018053Y004696D02*
X017730Y004696D01*
X017730Y004598D02*
X018053Y004598D01*
X018053Y004499D02*
X017730Y004499D01*
X017730Y004401D02*
X018053Y004401D01*
X018053Y004302D02*
X017730Y004302D01*
X017730Y004204D02*
X018053Y004204D01*
X018053Y004105D02*
X017730Y004105D01*
X017715Y004007D02*
X018053Y004007D01*
X018053Y003908D02*
X016813Y003908D01*
X016813Y003810D02*
X018053Y003810D01*
X018053Y003711D02*
X016813Y003711D01*
X016942Y003613D02*
X017923Y003613D01*
X017923Y003514D02*
X016942Y003514D01*
X016942Y003416D02*
X017923Y003416D01*
X017923Y003317D02*
X016942Y003317D01*
X016942Y003219D02*
X017923Y003219D01*
X017923Y003120D02*
X016942Y003120D01*
X016942Y003022D02*
X017923Y003022D01*
X017923Y002923D02*
X016942Y002923D01*
X016927Y002825D02*
X017938Y002825D01*
X016633Y003250D02*
X016633Y005150D01*
X017133Y005650D01*
X017606Y005484D02*
X017661Y005484D01*
X017633Y005583D02*
X017633Y005583D01*
X017633Y005681D02*
X017633Y005681D01*
X017621Y005780D02*
X017646Y005780D01*
X017687Y005878D02*
X017580Y005878D01*
X017514Y005977D02*
X017753Y005977D01*
X017853Y006075D02*
X017414Y006075D01*
X017223Y006550D02*
X016113Y006550D01*
X015743Y006180D01*
X015043Y006180D01*
X014858Y006365D01*
X014858Y007045D01*
X014853Y007040D01*
X014853Y006770D01*
X014608Y006635D02*
X014433Y006460D01*
X014608Y006635D02*
X014608Y007045D01*
X014403Y007060D02*
X011019Y007060D01*
X011117Y007159D02*
X014403Y007159D01*
X014403Y007257D02*
X011216Y007257D01*
X011314Y007356D02*
X012623Y007356D01*
X012631Y007342D02*
X012659Y007314D01*
X012694Y007294D01*
X012732Y007284D01*
X012880Y007284D01*
X012880Y007641D01*
X012938Y007641D01*
X012938Y007699D01*
X013216Y007699D01*
X013216Y007926D01*
X013206Y007964D01*
X013186Y007998D01*
X013159Y008026D01*
X013124Y008046D01*
X013091Y008055D01*
X013124Y008064D01*
X013159Y008084D01*
X013186Y008112D01*
X013206Y008146D01*
X013216Y008184D01*
X013216Y008411D01*
X012938Y008411D01*
X012938Y007699D01*
X012880Y007699D01*
X012880Y008056D01*
X012880Y008411D01*
X012601Y008411D01*
X012601Y008184D01*
X012612Y008146D01*
X012631Y008112D01*
X012659Y008084D01*
X012694Y008064D01*
X012727Y008055D01*
X012694Y008046D01*
X012659Y008026D01*
X012631Y007998D01*
X012612Y007964D01*
X012601Y007926D01*
X012601Y007699D01*
X012880Y007699D01*
X012880Y007641D01*
X012601Y007641D01*
X012601Y007414D01*
X012612Y007376D01*
X012631Y007342D01*
X012601Y007454D02*
X011413Y007454D01*
X011511Y007553D02*
X012601Y007553D01*
X012601Y007750D02*
X011708Y007750D01*
X011807Y007848D02*
X012601Y007848D01*
X012607Y007947D02*
X011905Y007947D01*
X012004Y008045D02*
X012692Y008045D01*
X012613Y008144D02*
X012102Y008144D01*
X012201Y008242D02*
X012601Y008242D01*
X012601Y008341D02*
X012299Y008341D01*
X012398Y008439D02*
X012880Y008439D01*
X012938Y008439D02*
X013330Y008439D01*
X013330Y008341D02*
X013216Y008341D01*
X013216Y008242D02*
X013330Y008242D01*
X013337Y008144D02*
X013205Y008144D01*
X013126Y008045D02*
X014844Y008045D01*
X014893Y007947D02*
X014776Y007947D01*
X014745Y008144D02*
X014298Y008144D01*
X014444Y008242D02*
X014647Y008242D01*
X014548Y008341D02*
X014498Y008341D01*
X014608Y008535D02*
X015203Y007940D01*
X015513Y007947D02*
X016945Y007947D01*
X016969Y007970D02*
X016883Y007885D01*
X016883Y007885D01*
X016539Y007540D01*
X016433Y007435D01*
X016433Y007400D01*
X016008Y007400D01*
X015991Y007410D01*
X015953Y007420D01*
X015858Y007420D01*
X015764Y007420D01*
X015725Y007410D01*
X015708Y007400D01*
X015293Y007400D01*
X015293Y007575D01*
X015238Y007630D01*
X015265Y007630D01*
X015379Y007677D01*
X015466Y007764D01*
X015513Y007878D01*
X015513Y007970D01*
X016969Y007970D01*
X016847Y007848D02*
X015501Y007848D01*
X015451Y007750D02*
X016748Y007750D01*
X016650Y007651D02*
X015316Y007651D01*
X015293Y007553D02*
X016551Y007553D01*
X016453Y007454D02*
X015293Y007454D01*
X015113Y007500D02*
X014943Y007670D01*
X014633Y007670D01*
X013618Y007670D01*
X013330Y007651D02*
X012938Y007651D01*
X012938Y007641D02*
X013216Y007641D01*
X013216Y007414D01*
X013206Y007376D01*
X013186Y007342D01*
X013159Y007314D01*
X013124Y007294D01*
X013086Y007284D01*
X012938Y007284D01*
X012938Y007641D01*
X012880Y007651D02*
X011610Y007651D01*
X011255Y007947D02*
X010693Y007947D01*
X010693Y008045D02*
X011353Y008045D01*
X011452Y008144D02*
X010693Y008144D01*
X010693Y008242D02*
X011550Y008242D01*
X011490Y008260D02*
X012800Y009570D01*
X016219Y009570D01*
X016279Y009510D01*
X015758Y009510D01*
X015741Y009520D01*
X015703Y009530D01*
X015608Y009530D01*
X015514Y009530D01*
X015475Y009520D01*
X015458Y009510D01*
X014479Y009510D01*
X014403Y009434D01*
X014403Y008876D01*
X014428Y008851D01*
X014428Y008653D01*
X014379Y008703D01*
X014265Y008750D01*
X014142Y008750D01*
X014028Y008703D01*
X013945Y008620D01*
X013905Y008620D01*
X013905Y008730D01*
X013853Y008782D01*
X013853Y008915D01*
X013719Y009050D01*
X013719Y009050D01*
X013559Y009210D01*
X012518Y009210D01*
X009903Y006595D01*
X009903Y006096D01*
X009850Y006074D01*
X009709Y005933D01*
X009687Y005880D01*
X008196Y005880D01*
X007253Y006824D01*
X007032Y007044D01*
X007084Y007044D01*
X007160Y007120D01*
X007160Y007503D01*
X007119Y007544D01*
X007122Y007546D01*
X007150Y007574D01*
X007170Y007608D01*
X007180Y007646D01*
X007180Y007785D01*
X006458Y007785D01*
X006458Y007823D01*
X007180Y007823D01*
X007180Y007961D01*
X007170Y008000D01*
X007150Y008034D01*
X007122Y008062D01*
X007119Y008064D01*
X007160Y008104D01*
X007160Y008220D01*
X007609Y008220D01*
X007799Y008030D01*
X007904Y007924D01*
X007917Y007924D01*
X007917Y007893D01*
X007993Y007817D01*
X008573Y007817D01*
X008650Y007893D01*
X008650Y008012D01*
X008668Y008030D01*
X008858Y008220D01*
X009173Y008220D01*
X009173Y007801D01*
X009250Y007725D01*
X009869Y007725D01*
X009933Y007789D01*
X009998Y007725D01*
X010617Y007725D01*
X010693Y007801D01*
X010693Y008260D01*
X011490Y008260D01*
X011571Y008341D02*
X011649Y008341D01*
X011669Y008439D02*
X011747Y008439D01*
X011768Y008538D02*
X011846Y008538D01*
X011866Y008636D02*
X011944Y008636D01*
X011965Y008735D02*
X012043Y008735D01*
X012063Y008833D02*
X012141Y008833D01*
X012162Y008932D02*
X012240Y008932D01*
X012260Y009030D02*
X012338Y009030D01*
X012359Y009129D02*
X012437Y009129D01*
X012457Y009227D02*
X014403Y009227D01*
X014403Y009129D02*
X013640Y009129D01*
X013739Y009030D02*
X014403Y009030D01*
X014403Y008932D02*
X013837Y008932D01*
X013853Y008833D02*
X014428Y008833D01*
X014428Y008735D02*
X014302Y008735D01*
X014104Y008735D02*
X013901Y008735D01*
X013905Y008636D02*
X013961Y008636D01*
X014203Y008440D02*
X013618Y008440D01*
X013330Y008538D02*
X013216Y008538D01*
X013216Y008636D02*
X013330Y008636D01*
X013335Y008735D02*
X013206Y008735D01*
X012938Y008341D02*
X012880Y008341D01*
X012880Y008242D02*
X012938Y008242D01*
X012938Y008144D02*
X012880Y008144D01*
X012880Y008045D02*
X012938Y008045D01*
X012938Y007947D02*
X012880Y007947D01*
X012880Y007848D02*
X012938Y007848D01*
X012938Y007750D02*
X012880Y007750D01*
X012880Y007553D02*
X012938Y007553D01*
X012938Y007454D02*
X012880Y007454D01*
X012880Y007356D02*
X012938Y007356D01*
X013194Y007356D02*
X013355Y007356D01*
X013330Y007454D02*
X013216Y007454D01*
X013216Y007553D02*
X013330Y007553D01*
X013330Y007750D02*
X013216Y007750D01*
X013216Y007848D02*
X013330Y007848D01*
X013330Y007947D02*
X013211Y007947D01*
X013905Y007947D02*
X014491Y007947D01*
X014109Y008144D02*
X013899Y008144D01*
X013905Y008242D02*
X013963Y008242D01*
X014608Y008535D02*
X014608Y009155D01*
X014403Y009326D02*
X012556Y009326D01*
X012654Y009424D02*
X014403Y009424D01*
X014383Y009420D02*
X014473Y009510D01*
X015553Y009510D01*
X015608Y009455D01*
X015608Y009155D01*
X015608Y009530D01*
X015608Y009155D01*
X015608Y009155D01*
X015608Y009227D02*
X015608Y009227D01*
X015608Y009326D02*
X015608Y009326D01*
X015608Y009424D02*
X015608Y009424D01*
X015608Y009523D02*
X015608Y009523D01*
X015486Y009523D02*
X012753Y009523D01*
X012725Y009750D02*
X016293Y009750D01*
X016603Y009440D01*
X016603Y009160D01*
X016608Y009155D01*
X016853Y009160D02*
X016858Y009155D01*
X016853Y009160D02*
X016853Y009550D01*
X016353Y010050D01*
X012601Y010050D01*
X011291Y008740D01*
X010617Y008740D01*
X010307Y009050D01*
X010693Y009030D02*
X011327Y009030D01*
X011425Y009129D02*
X010693Y009129D01*
X010693Y009227D02*
X011524Y009227D01*
X011622Y009326D02*
X010693Y009326D01*
X010668Y009424D02*
X011721Y009424D01*
X011819Y009523D02*
X008668Y009523D01*
X008670Y009527D02*
X008670Y009676D01*
X008312Y009676D01*
X008312Y009733D01*
X008670Y009733D01*
X008670Y009882D01*
X008659Y009920D01*
X008640Y009954D01*
X008612Y009982D01*
X008577Y010002D01*
X008539Y010012D01*
X008312Y010012D01*
X008312Y009733D01*
X008255Y009733D01*
X008255Y010012D01*
X008027Y010012D01*
X007989Y010002D01*
X007955Y009982D01*
X007927Y009954D01*
X007907Y009920D01*
X007897Y009882D01*
X007897Y009733D01*
X008255Y009733D01*
X008255Y009676D01*
X008312Y009676D01*
X008312Y009397D01*
X008539Y009397D01*
X008577Y009407D01*
X008612Y009427D01*
X008640Y009455D01*
X008659Y009489D01*
X008670Y009527D01*
X008670Y009621D02*
X011918Y009621D01*
X012016Y009720D02*
X008312Y009720D01*
X008255Y009720D02*
X002083Y009720D01*
X002083Y009818D02*
X007897Y009818D01*
X007906Y009917D02*
X002083Y009917D01*
X002083Y010015D02*
X002593Y010015D01*
X002593Y010004D02*
X002669Y009928D01*
X005154Y009928D01*
X005231Y010004D01*
X005231Y011450D01*
X005154Y011526D01*
X002669Y011526D01*
X002593Y011450D01*
X002593Y010004D01*
X002593Y010114D02*
X002083Y010114D01*
X002083Y010212D02*
X002593Y010212D01*
X002593Y010311D02*
X002083Y010311D01*
X002083Y010409D02*
X002593Y010409D01*
X002593Y010508D02*
X002083Y010508D01*
X002083Y010606D02*
X002593Y010606D01*
X002593Y010705D02*
X002083Y010705D01*
X002083Y010803D02*
X002593Y010803D01*
X002593Y010902D02*
X002083Y010902D01*
X002083Y011000D02*
X002593Y011000D01*
X002593Y011099D02*
X002083Y011099D01*
X002083Y011197D02*
X002593Y011197D01*
X002593Y011296D02*
X002083Y011296D01*
X002083Y011394D02*
X002593Y011394D01*
X002635Y011493D02*
X002083Y011493D01*
X002083Y011591D02*
X011603Y011591D01*
X011603Y011536D02*
X011614Y011498D01*
X011633Y011463D01*
X011661Y011435D01*
X011695Y011416D01*
X011734Y011406D01*
X011887Y011406D01*
X011887Y011856D01*
X011954Y011856D01*
X011954Y011924D01*
X011887Y011924D01*
X011887Y012375D01*
X011734Y012375D01*
X011695Y012365D01*
X011661Y012345D01*
X011633Y012317D01*
X011614Y012283D01*
X011603Y012245D01*
X011603Y011924D01*
X011887Y011924D01*
X011887Y011856D01*
X011603Y011856D01*
X011603Y011536D01*
X011617Y011493D02*
X005188Y011493D01*
X005231Y011394D02*
X012103Y011394D01*
X012004Y011296D02*
X005231Y011296D01*
X005231Y011197D02*
X011906Y011197D01*
X011807Y011099D02*
X011536Y011099D01*
X011330Y011099D02*
X010582Y011099D01*
X010483Y011099D02*
X010383Y011099D01*
X010383Y011119D02*
X010312Y011107D01*
X010234Y011082D01*
X010161Y011045D01*
X010095Y010997D01*
X010037Y010939D01*
X009989Y010873D01*
X009951Y010800D01*
X009926Y010722D01*
X009915Y010650D01*
X010383Y010650D01*
X010383Y011119D01*
X010285Y011099D02*
X005231Y011099D01*
X005231Y011000D02*
X010099Y011000D01*
X010010Y010902D02*
X005231Y010902D01*
X005231Y010803D02*
X009953Y010803D01*
X009923Y010705D02*
X005231Y010705D01*
X005231Y010606D02*
X010383Y010606D01*
X010383Y010508D02*
X010483Y010508D01*
X010483Y010409D02*
X010383Y010409D01*
X010383Y010311D02*
X010483Y010311D01*
X010483Y010212D02*
X010383Y010212D01*
X010383Y010114D02*
X010483Y010114D01*
X010619Y010114D02*
X011301Y010114D01*
X011114Y010212D02*
X010781Y010212D01*
X010866Y010311D02*
X011016Y010311D01*
X010971Y010409D02*
X010918Y010409D01*
X010483Y010705D02*
X010383Y010705D01*
X010383Y010803D02*
X010483Y010803D01*
X010483Y010902D02*
X010383Y010902D01*
X010383Y011000D02*
X010483Y011000D01*
X010767Y011000D02*
X011126Y011000D01*
X011028Y010902D02*
X010857Y010902D01*
X010913Y010803D02*
X010976Y010803D01*
X011433Y010600D02*
X011563Y010600D01*
X012713Y011750D01*
X012713Y013066D01*
X012708Y013071D01*
X012411Y013069D02*
X003077Y013069D01*
X003315Y013167D02*
X012411Y013167D01*
X012411Y013266D02*
X003448Y013266D01*
X003546Y013364D02*
X012411Y013364D01*
X012414Y013463D02*
X003631Y013463D01*
X003672Y013561D02*
X014558Y013561D01*
X014577Y013463D02*
X014656Y013463D01*
X014580Y013364D02*
X014755Y013364D01*
X014853Y013266D02*
X014580Y013266D01*
X014580Y013167D02*
X014890Y013167D01*
X014890Y013069D02*
X014580Y013069D01*
X014580Y012970D02*
X014890Y012970D01*
X014890Y012872D02*
X014580Y012872D01*
X014580Y012773D02*
X014890Y012773D01*
X014890Y012675D02*
X014572Y012675D01*
X014463Y012576D02*
X014890Y012576D01*
X014890Y012478D02*
X014463Y012478D01*
X014463Y012379D02*
X014890Y012379D01*
X014775Y012281D02*
X014463Y012281D01*
X014463Y012182D02*
X014773Y012182D01*
X014773Y012084D02*
X014463Y012084D01*
X014463Y011985D02*
X014773Y011985D01*
X014773Y011887D02*
X014463Y011887D01*
X014463Y011788D02*
X014773Y011788D01*
X014773Y011690D02*
X014463Y011690D01*
X014463Y011591D02*
X014773Y011591D01*
X014782Y011493D02*
X014463Y011493D01*
X014463Y011394D02*
X014890Y011394D01*
X014874Y011296D02*
X014383Y011296D01*
X014285Y011197D02*
X014776Y011197D01*
X014677Y011099D02*
X014536Y011099D01*
X014330Y011099D02*
X014186Y011099D01*
X014126Y011000D02*
X014088Y011000D01*
X014028Y010902D02*
X013989Y010902D01*
X013935Y010705D02*
X013931Y010705D01*
X013933Y010699D02*
X013933Y010501D01*
X013857Y010317D01*
X013770Y010230D01*
X014096Y010230D01*
X014009Y010317D01*
X013933Y010501D01*
X013933Y010699D01*
X013933Y010606D02*
X013933Y010606D01*
X013933Y010508D02*
X013933Y010508D01*
X013895Y010409D02*
X013971Y010409D01*
X014016Y010311D02*
X013851Y010311D01*
X013433Y010600D02*
X014283Y011450D01*
X014283Y013071D01*
X013986Y013069D02*
X013005Y013069D01*
X013005Y013167D02*
X013986Y013167D01*
X013986Y013266D02*
X013005Y013266D01*
X013005Y013364D02*
X013986Y013364D01*
X013988Y013463D02*
X013003Y013463D01*
X013168Y013857D02*
X012443Y013857D01*
X012443Y013955D02*
X013128Y013955D01*
X013383Y014200D02*
X012057Y014200D01*
X012443Y014448D02*
X013128Y014448D01*
X013170Y014546D02*
X012443Y014546D01*
X011309Y014200D02*
X010447Y014200D01*
X010813Y013955D02*
X010923Y013955D01*
X010923Y013857D02*
X010760Y013857D01*
X010134Y013857D02*
X009961Y013857D01*
X009948Y013844D02*
X009976Y013872D01*
X009996Y013906D01*
X010006Y013944D01*
X010006Y014150D01*
X009670Y014150D01*
X009670Y014250D01*
X010006Y014250D01*
X010006Y014456D01*
X009996Y014494D01*
X009976Y014528D01*
X009948Y014556D01*
X009914Y014576D01*
X009876Y014586D01*
X009670Y014586D01*
X009670Y014250D01*
X009570Y014250D01*
X009570Y014586D01*
X009364Y014586D01*
X009326Y014576D01*
X009292Y014556D01*
X009264Y014528D01*
X009244Y014494D01*
X009234Y014456D01*
X009234Y014250D01*
X009570Y014250D01*
X009570Y014150D01*
X009670Y014150D01*
X009670Y013814D01*
X009876Y013814D01*
X009914Y013824D01*
X009948Y013844D01*
X010006Y013955D02*
X010080Y013955D01*
X010080Y014054D02*
X010006Y014054D01*
X010080Y014152D02*
X009670Y014152D01*
X009670Y014054D02*
X009570Y014054D01*
X009570Y014150D02*
X009570Y013814D01*
X009364Y013814D01*
X009326Y013824D01*
X009292Y013844D01*
X009264Y013872D01*
X009244Y013906D01*
X009234Y013944D01*
X009234Y014150D01*
X009570Y014150D01*
X009570Y014152D02*
X003741Y014152D01*
X003756Y014054D02*
X009234Y014054D01*
X009234Y013955D02*
X003756Y013955D01*
X003756Y013857D02*
X009279Y013857D01*
X009570Y013857D02*
X009670Y013857D01*
X009670Y013955D02*
X009570Y013955D01*
X009570Y014251D02*
X009670Y014251D01*
X009670Y014349D02*
X009570Y014349D01*
X009570Y014448D02*
X009670Y014448D01*
X009670Y014546D02*
X009570Y014546D01*
X009281Y014546D02*
X003516Y014546D01*
X003418Y014645D02*
X023508Y014645D01*
X023467Y014546D02*
X013996Y014546D01*
X014038Y014448D02*
X023427Y014448D01*
X023386Y014349D02*
X014038Y014349D01*
X013843Y014140D02*
X013783Y014200D01*
X013843Y014140D02*
X014233Y014140D01*
X015070Y013303D01*
X015070Y011890D01*
X015070Y011237D01*
X014433Y010600D01*
X014895Y010409D02*
X014971Y010409D01*
X014933Y010501D02*
X015009Y010317D01*
X015096Y010230D01*
X014770Y010230D01*
X014857Y010317D01*
X014933Y010501D01*
X014933Y010699D01*
X014933Y010501D01*
X014933Y010508D02*
X014933Y010508D01*
X014933Y010606D02*
X014933Y010606D01*
X014931Y010705D02*
X014935Y010705D01*
X014989Y010902D02*
X015028Y010902D01*
X015088Y011000D02*
X015126Y011000D01*
X015186Y011099D02*
X015330Y011099D01*
X015250Y011197D02*
X015678Y011197D01*
X015677Y011099D02*
X015536Y011099D01*
X015678Y011296D02*
X015250Y011296D01*
X015250Y011394D02*
X015678Y011394D01*
X015678Y011493D02*
X015358Y011493D01*
X015368Y011591D02*
X015678Y011591D01*
X015678Y011690D02*
X015368Y011690D01*
X015368Y011788D02*
X015678Y011788D01*
X015678Y011887D02*
X015368Y011887D01*
X015368Y011985D02*
X015678Y011985D01*
X015678Y012084D02*
X015368Y012084D01*
X015368Y012182D02*
X015678Y012182D01*
X015678Y012281D02*
X015366Y012281D01*
X015250Y012379D02*
X015678Y012379D01*
X015678Y012478D02*
X015250Y012478D01*
X015250Y012576D02*
X015678Y012576D01*
X015569Y012675D02*
X015250Y012675D01*
X015250Y012773D02*
X015560Y012773D01*
X015560Y012872D02*
X015250Y012872D01*
X015250Y012970D02*
X015560Y012970D01*
X015560Y013069D02*
X015250Y013069D01*
X015250Y013167D02*
X015560Y013167D01*
X015560Y013266D02*
X015250Y013266D01*
X015250Y013364D02*
X015560Y013364D01*
X015563Y013463D02*
X015165Y013463D01*
X015067Y013561D02*
X018827Y013561D01*
X018848Y013660D02*
X014968Y013660D01*
X014870Y013758D02*
X018947Y013758D01*
X019045Y013857D02*
X014771Y013857D01*
X014673Y013955D02*
X019144Y013955D01*
X019243Y013800D02*
X022623Y013800D01*
X022733Y013690D01*
X022733Y013354D01*
X022897Y013190D01*
X024333Y013190D01*
X024643Y012880D01*
X024643Y011630D01*
X024431Y011418D01*
X024207Y011418D01*
X024204Y011415D01*
X024204Y010340D01*
X023799Y010311D02*
X023152Y010311D01*
X023152Y010290D02*
X023152Y010390D01*
X023052Y010390D01*
X023052Y010290D01*
X022677Y010290D01*
X022677Y010005D01*
X022687Y009967D01*
X022707Y009933D01*
X022734Y009905D01*
X022769Y009885D01*
X022807Y009875D01*
X023052Y009875D01*
X023052Y010290D01*
X023152Y010290D01*
X023152Y009875D01*
X023397Y009875D01*
X023436Y009885D01*
X023470Y009905D01*
X023498Y009933D01*
X023517Y009967D01*
X023528Y010005D01*
X023528Y010290D01*
X023152Y010290D01*
X023152Y010212D02*
X023052Y010212D01*
X023052Y010114D02*
X023152Y010114D01*
X023152Y010015D02*
X023052Y010015D01*
X023052Y009917D02*
X023152Y009917D01*
X023481Y009917D02*
X023854Y009917D01*
X023799Y010015D02*
X023528Y010015D01*
X023528Y010114D02*
X023799Y010114D01*
X023799Y010212D02*
X023528Y010212D01*
X023528Y010390D02*
X023528Y010675D01*
X023517Y010713D01*
X023498Y010747D01*
X023470Y010775D01*
X023436Y010795D01*
X023397Y010805D01*
X023152Y010805D01*
X023152Y010390D01*
X023528Y010390D01*
X023528Y010409D02*
X023799Y010409D01*
X023799Y010508D02*
X023528Y010508D01*
X023528Y010606D02*
X023799Y010606D01*
X023799Y010705D02*
X023520Y010705D01*
X023405Y010803D02*
X024024Y010803D01*
X024024Y010902D02*
X022043Y010902D01*
X022043Y010905D02*
X023042Y011904D01*
X023385Y011904D01*
X023393Y011895D01*
X023499Y011790D01*
X024198Y011790D01*
X024278Y011870D01*
X024383Y011975D01*
X024383Y012089D01*
X024446Y012152D01*
X024446Y012732D01*
X024369Y012808D01*
X024045Y012808D01*
X024034Y012797D01*
X024034Y012798D01*
X023999Y012818D01*
X023961Y012828D01*
X023837Y012828D01*
X023837Y012446D01*
X023829Y012446D01*
X023829Y012828D01*
X023705Y012828D01*
X023667Y012818D01*
X023633Y012798D01*
X023632Y012797D01*
X023621Y012808D01*
X023297Y012808D01*
X023221Y012732D01*
X023221Y012264D01*
X022893Y012264D01*
X021789Y011160D01*
X021683Y011055D01*
X021683Y009500D01*
X021662Y009500D01*
X021548Y009453D01*
X021461Y009366D01*
X021413Y009252D01*
X021413Y009128D01*
X021461Y009014D01*
X021548Y008927D01*
X021662Y008880D01*
X021785Y008880D01*
X021899Y008927D01*
X021986Y009014D01*
X022033Y009128D01*
X022033Y009245D01*
X022043Y009255D01*
X022043Y010905D01*
X022043Y010803D02*
X022800Y010803D01*
X022807Y010805D02*
X022769Y010795D01*
X022734Y010775D01*
X022707Y010747D01*
X022687Y010713D01*
X022677Y010675D01*
X022677Y010390D01*
X023052Y010390D01*
X023052Y010805D01*
X022807Y010805D01*
X022685Y010705D02*
X022043Y010705D01*
X022043Y010606D02*
X022677Y010606D01*
X022677Y010508D02*
X022043Y010508D01*
X022043Y010409D02*
X022677Y010409D01*
X022677Y010212D02*
X022043Y010212D01*
X022043Y010114D02*
X022677Y010114D01*
X022677Y010015D02*
X022043Y010015D01*
X022043Y009917D02*
X022723Y009917D01*
X023052Y010311D02*
X022043Y010311D01*
X021683Y010311D02*
X020866Y010311D01*
X020918Y010409D02*
X021683Y010409D01*
X021683Y010508D02*
X020945Y010508D01*
X020952Y010650D02*
X020941Y010722D01*
X020915Y010800D01*
X020878Y010873D01*
X020830Y010939D01*
X020772Y010997D01*
X020706Y011045D01*
X020633Y011082D01*
X020555Y011107D01*
X020483Y011119D01*
X020483Y010650D01*
X020952Y010650D01*
X020943Y010705D02*
X021683Y010705D01*
X021683Y010803D02*
X020913Y010803D01*
X020857Y010902D02*
X021683Y010902D01*
X021683Y011000D02*
X020767Y011000D01*
X020582Y011099D02*
X021727Y011099D01*
X021826Y011197D02*
X020113Y011197D01*
X020113Y011099D02*
X020285Y011099D01*
X020383Y011099D02*
X020483Y011099D01*
X020483Y011000D02*
X020383Y011000D01*
X020383Y010902D02*
X020483Y010902D01*
X020483Y010803D02*
X020383Y010803D01*
X020383Y010705D02*
X020483Y010705D01*
X020483Y010606D02*
X021683Y010606D01*
X021863Y010980D02*
X021863Y009330D01*
X021723Y009190D01*
X021444Y009326D02*
X019113Y009326D01*
X019113Y009424D02*
X021519Y009424D01*
X021683Y009523D02*
X019113Y009523D01*
X019087Y009621D02*
X021683Y009621D01*
X021683Y009720D02*
X018988Y009720D01*
X018890Y009818D02*
X021683Y009818D01*
X021683Y009917D02*
X019834Y009917D01*
X019933Y010015D02*
X021683Y010015D01*
X021683Y010114D02*
X020619Y010114D01*
X020483Y010114D02*
X020383Y010114D01*
X020383Y010212D02*
X020483Y010212D01*
X020483Y010311D02*
X020383Y010311D01*
X020383Y010409D02*
X020483Y010409D01*
X020483Y010508D02*
X020383Y010508D01*
X020248Y010114D02*
X020031Y010114D01*
X019933Y010270D02*
X019933Y012673D01*
X020480Y013220D01*
X020846Y013266D02*
X020940Y013266D01*
X020940Y013364D02*
X020846Y013364D01*
X020846Y013463D02*
X020940Y013463D01*
X020991Y013561D02*
X020795Y013561D01*
X020846Y013167D02*
X020940Y013167D01*
X020940Y013069D02*
X020846Y013069D01*
X020846Y012970D02*
X020940Y012970D01*
X020999Y012872D02*
X020788Y012872D01*
X020288Y012773D02*
X021831Y012773D01*
X021763Y012872D02*
X021615Y012872D01*
X021673Y012970D02*
X021763Y012970D01*
X022119Y013220D02*
X021307Y013220D01*
X021673Y013463D02*
X021763Y013463D01*
X021785Y013561D02*
X021622Y013561D01*
X022119Y013220D02*
X022149Y013190D01*
X022513Y013561D02*
X022533Y013561D01*
X022913Y013660D02*
X023515Y013660D01*
X023474Y013758D02*
X022913Y013758D01*
X022821Y013857D02*
X023433Y013857D01*
X023392Y013955D02*
X022723Y013955D01*
X023380Y014054D02*
X014574Y014054D01*
X014476Y014152D02*
X023380Y014152D01*
X023380Y014251D02*
X014377Y014251D01*
X014164Y013955D02*
X014038Y013955D01*
X013999Y013857D02*
X014262Y013857D01*
X014361Y013758D02*
X003754Y013758D01*
X003713Y013660D02*
X014459Y013660D01*
X013986Y012970D02*
X013005Y012970D01*
X013005Y012872D02*
X013986Y012872D01*
X013986Y012773D02*
X013005Y012773D01*
X012997Y012675D02*
X013994Y012675D01*
X014103Y012576D02*
X012893Y012576D01*
X012893Y012478D02*
X014103Y012478D01*
X014103Y012379D02*
X012893Y012379D01*
X012893Y012281D02*
X013200Y012281D01*
X013198Y012182D02*
X012893Y012182D01*
X012893Y012084D02*
X013198Y012084D01*
X013198Y011985D02*
X012893Y011985D01*
X012893Y011887D02*
X013198Y011887D01*
X013198Y011788D02*
X012893Y011788D01*
X012893Y011690D02*
X013198Y011690D01*
X013170Y011591D02*
X012809Y011591D01*
X012710Y011493D02*
X013071Y011493D01*
X012973Y011394D02*
X012612Y011394D01*
X012513Y011296D02*
X012874Y011296D01*
X012776Y011197D02*
X012415Y011197D01*
X012330Y011099D02*
X012316Y011099D01*
X012536Y011099D02*
X012677Y011099D01*
X012989Y010902D02*
X013028Y010902D01*
X013088Y011000D02*
X013126Y011000D01*
X013186Y011099D02*
X013330Y011099D01*
X013285Y011197D02*
X013776Y011197D01*
X013874Y011296D02*
X013383Y011296D01*
X013482Y011394D02*
X013973Y011394D01*
X014071Y011493D02*
X013784Y011493D01*
X013793Y011591D02*
X014103Y011591D01*
X014103Y011690D02*
X013793Y011690D01*
X013793Y011788D02*
X014103Y011788D01*
X014103Y011887D02*
X013793Y011887D01*
X013793Y011985D02*
X014103Y011985D01*
X014103Y012084D02*
X013793Y012084D01*
X013793Y012182D02*
X014103Y012182D01*
X014103Y012281D02*
X013791Y012281D01*
X013496Y011890D02*
X013496Y011662D01*
X012433Y010600D01*
X011933Y010606D02*
X011933Y010606D01*
X011933Y010508D02*
X011933Y010508D01*
X011895Y010409D02*
X011971Y010409D01*
X012016Y010311D02*
X011851Y010311D01*
X011752Y010212D02*
X012114Y010212D01*
X012301Y010114D02*
X011565Y010114D01*
X012115Y009818D02*
X008670Y009818D01*
X008660Y009917D02*
X012213Y009917D01*
X012312Y010015D02*
X005231Y010015D01*
X005231Y010114D02*
X010248Y010114D01*
X010086Y010212D02*
X005231Y010212D01*
X005231Y010311D02*
X010001Y010311D01*
X009949Y010409D02*
X005231Y010409D01*
X005231Y010508D02*
X009921Y010508D01*
X009920Y009424D02*
X009946Y009424D01*
X009559Y009050D02*
X009209Y008700D01*
X008783Y008700D01*
X008488Y008996D01*
X008283Y008996D01*
X007979Y008996D01*
X007683Y008700D01*
X006527Y008700D01*
X006439Y008788D01*
X007110Y009030D02*
X007759Y009030D01*
X007799Y009070D02*
X007799Y009070D01*
X007857Y009129D02*
X004389Y009129D01*
X004409Y009080D02*
X004298Y009347D01*
X004094Y009551D01*
X003828Y009661D01*
X003539Y009661D01*
X003272Y009551D01*
X003068Y009347D01*
X002958Y009080D01*
X002958Y008791D01*
X003068Y008525D01*
X003272Y008321D01*
X003539Y008210D01*
X003828Y008210D01*
X004094Y008321D01*
X004298Y008525D01*
X004409Y008791D01*
X004409Y009080D01*
X004409Y009030D02*
X005769Y009030D01*
X005719Y008932D02*
X004409Y008932D01*
X004409Y008833D02*
X005719Y008833D01*
X005719Y008735D02*
X004385Y008735D01*
X004344Y008636D02*
X005719Y008636D01*
X005768Y008538D02*
X004304Y008538D01*
X004213Y008439D02*
X005719Y008439D01*
X005719Y008341D02*
X004114Y008341D01*
X003904Y008242D02*
X005719Y008242D01*
X005719Y008144D02*
X002083Y008144D01*
X002083Y008242D02*
X003462Y008242D01*
X003252Y008341D02*
X002083Y008341D01*
X002083Y008439D02*
X003154Y008439D01*
X003063Y008538D02*
X002083Y008538D01*
X002083Y008636D02*
X003022Y008636D01*
X002981Y008735D02*
X002083Y008735D01*
X002083Y008833D02*
X002958Y008833D01*
X002958Y008932D02*
X002083Y008932D01*
X002083Y009030D02*
X002958Y009030D01*
X002978Y009129D02*
X002083Y009129D01*
X002083Y009227D02*
X003019Y009227D01*
X003059Y009326D02*
X002083Y009326D01*
X002083Y009424D02*
X003145Y009424D01*
X003244Y009523D02*
X002083Y009523D01*
X002083Y009621D02*
X003441Y009621D01*
X003925Y009621D02*
X007897Y009621D01*
X007897Y009676D02*
X007897Y009527D01*
X007907Y009489D01*
X007927Y009455D01*
X007955Y009427D01*
X007989Y009407D01*
X008027Y009397D01*
X008255Y009397D01*
X008255Y009676D01*
X007897Y009676D01*
X007898Y009523D02*
X004123Y009523D01*
X004221Y009424D02*
X007960Y009424D01*
X007937Y009227D02*
X004348Y009227D01*
X004307Y009326D02*
X009173Y009326D01*
X009173Y009227D02*
X008630Y009227D01*
X008650Y009129D02*
X009173Y009129D01*
X009173Y009030D02*
X008708Y009030D01*
X008806Y008932D02*
X009173Y008932D01*
X009198Y009424D02*
X008607Y009424D01*
X008312Y009424D02*
X008255Y009424D01*
X008255Y009523D02*
X008312Y009523D01*
X008312Y009621D02*
X008255Y009621D01*
X008255Y009818D02*
X008312Y009818D01*
X008312Y009917D02*
X008255Y009917D01*
X007660Y008932D02*
X007160Y008932D01*
X007683Y008400D02*
X006543Y008400D01*
X006439Y008296D01*
X007160Y008144D02*
X007685Y008144D01*
X007784Y008045D02*
X007139Y008045D01*
X007180Y007947D02*
X007882Y007947D01*
X007962Y007848D02*
X007180Y007848D01*
X007180Y007750D02*
X009225Y007750D01*
X009173Y007848D02*
X008605Y007848D01*
X008650Y007947D02*
X009173Y007947D01*
X009173Y008045D02*
X008683Y008045D01*
X008781Y008144D02*
X009173Y008144D01*
X009309Y008400D02*
X008783Y008400D01*
X008488Y008104D01*
X008283Y008104D01*
X007979Y008104D01*
X007683Y008400D01*
X007989Y007693D02*
X007955Y007673D01*
X007927Y007645D01*
X007907Y007611D01*
X007897Y007573D01*
X007897Y007424D01*
X008255Y007424D01*
X008255Y007367D01*
X008312Y007367D01*
X008312Y007424D01*
X008670Y007424D01*
X008670Y007573D01*
X008659Y007611D01*
X008640Y007645D01*
X008612Y007673D01*
X008577Y007693D01*
X008539Y007703D01*
X008312Y007703D01*
X008312Y007424D01*
X008255Y007424D01*
X008255Y007703D01*
X008027Y007703D01*
X007989Y007693D01*
X007933Y007651D02*
X007180Y007651D01*
X007128Y007553D02*
X007897Y007553D01*
X007897Y007454D02*
X007160Y007454D01*
X007160Y007356D02*
X007897Y007356D01*
X007897Y007367D02*
X007897Y007218D01*
X007907Y007180D01*
X007927Y007146D01*
X007955Y007118D01*
X007989Y007098D01*
X008027Y007088D01*
X008255Y007088D01*
X008255Y007367D01*
X007897Y007367D01*
X007897Y007257D02*
X007160Y007257D01*
X007160Y007159D02*
X007920Y007159D01*
X008255Y007159D02*
X008312Y007159D01*
X008312Y007088D02*
X008539Y007088D01*
X008577Y007098D01*
X008612Y007118D01*
X008640Y007146D01*
X008659Y007180D01*
X008670Y007218D01*
X008670Y007367D01*
X008312Y007367D01*
X008312Y007088D01*
X008312Y007257D02*
X008255Y007257D01*
X008255Y007356D02*
X008312Y007356D01*
X008312Y007454D02*
X008255Y007454D01*
X008255Y007553D02*
X008312Y007553D01*
X008312Y007651D02*
X008255Y007651D01*
X008634Y007651D02*
X010959Y007651D01*
X010861Y007553D02*
X008670Y007553D01*
X008670Y007454D02*
X010762Y007454D01*
X010664Y007356D02*
X008670Y007356D01*
X008670Y007257D02*
X010565Y007257D01*
X010467Y007159D02*
X008647Y007159D01*
X007607Y006469D02*
X009903Y006469D01*
X009903Y006371D02*
X007706Y006371D01*
X007804Y006272D02*
X009903Y006272D01*
X009903Y006174D02*
X007903Y006174D01*
X008001Y006075D02*
X009853Y006075D01*
X009753Y005977D02*
X008100Y005977D01*
X007745Y005681D02*
X007387Y005681D01*
X007387Y005583D02*
X007843Y005583D01*
X007942Y005484D02*
X007387Y005484D01*
X007387Y005386D02*
X009702Y005386D01*
X009789Y005287D02*
X007387Y005287D01*
X007387Y005189D02*
X009941Y005189D01*
X010326Y005189D02*
X010941Y005189D01*
X010789Y005287D02*
X010477Y005287D01*
X010565Y005386D02*
X010702Y005386D01*
X010661Y005484D02*
X010606Y005484D01*
X010633Y005583D02*
X010633Y005583D01*
X010633Y005681D02*
X010633Y005681D01*
X010621Y005780D02*
X010646Y005780D01*
X010687Y005878D02*
X010580Y005878D01*
X010514Y005977D02*
X010753Y005977D01*
X010853Y006075D02*
X010414Y006075D01*
X010363Y006174D02*
X014315Y006174D01*
X014414Y006075D02*
X014853Y006075D01*
X014863Y006105D02*
X014863Y006105D01*
X014795Y006174D02*
X014552Y006174D01*
X014684Y006272D02*
X014697Y006272D01*
X014784Y006185D02*
X014784Y006185D01*
X014753Y005977D02*
X014514Y005977D01*
X014580Y005878D02*
X014687Y005878D01*
X014646Y005780D02*
X014621Y005780D01*
X014633Y005681D02*
X014633Y005681D01*
X014633Y005583D02*
X014633Y005583D01*
X014606Y005484D02*
X014661Y005484D01*
X014702Y005386D02*
X014565Y005386D01*
X014513Y005287D02*
X014789Y005287D01*
X014941Y005189D02*
X014513Y005189D01*
X014513Y005090D02*
X014953Y005090D01*
X014953Y004992D02*
X014513Y004992D01*
X014513Y004893D02*
X014953Y004893D01*
X014953Y004795D02*
X014580Y004795D01*
X014580Y004696D02*
X014953Y004696D01*
X014953Y004598D02*
X014580Y004598D01*
X014580Y004499D02*
X014953Y004499D01*
X014953Y004401D02*
X014580Y004401D01*
X014580Y004302D02*
X014953Y004302D01*
X014953Y004204D02*
X014580Y004204D01*
X014580Y004105D02*
X014953Y004105D01*
X014953Y004007D02*
X014565Y004007D01*
X014953Y003908D02*
X013713Y003908D01*
X013713Y003810D02*
X014953Y003810D01*
X014953Y003711D02*
X013713Y003711D01*
X013793Y003613D02*
X014773Y003613D01*
X014773Y003514D02*
X013793Y003514D01*
X013793Y003416D02*
X014773Y003416D01*
X014773Y003317D02*
X013793Y003317D01*
X013793Y003219D02*
X014773Y003219D01*
X014773Y003120D02*
X013793Y003120D01*
X013793Y003022D02*
X014773Y003022D01*
X014773Y002923D02*
X013793Y002923D01*
X013777Y002825D02*
X014789Y002825D01*
X015133Y003150D02*
X015133Y005650D01*
X015606Y005484D02*
X015661Y005484D01*
X015653Y005386D02*
X015565Y005386D01*
X015477Y005287D02*
X015653Y005287D01*
X015653Y005189D02*
X015326Y005189D01*
X015313Y005090D02*
X015653Y005090D01*
X015653Y004992D02*
X015313Y004992D01*
X015313Y004893D02*
X015653Y004893D01*
X015560Y004795D02*
X015313Y004795D01*
X015313Y004696D02*
X015560Y004696D01*
X015560Y004598D02*
X015313Y004598D01*
X015313Y004499D02*
X015560Y004499D01*
X015560Y004401D02*
X015313Y004401D01*
X015313Y004302D02*
X015560Y004302D01*
X015560Y004204D02*
X015313Y004204D01*
X015313Y004105D02*
X015560Y004105D01*
X015575Y004007D02*
X015313Y004007D01*
X015313Y003908D02*
X016453Y003908D01*
X016453Y003810D02*
X015313Y003810D01*
X015313Y003711D02*
X016453Y003711D01*
X016348Y003613D02*
X015368Y003613D01*
X015368Y003514D02*
X016348Y003514D01*
X016348Y003416D02*
X015368Y003416D01*
X015368Y003317D02*
X016348Y003317D01*
X016348Y003219D02*
X015368Y003219D01*
X015368Y003120D02*
X016348Y003120D01*
X016348Y003022D02*
X015368Y003022D01*
X015368Y002923D02*
X016348Y002923D01*
X016364Y002825D02*
X015352Y002825D01*
X016140Y004007D02*
X016453Y004007D01*
X016453Y004105D02*
X016155Y004105D01*
X016155Y004204D02*
X016453Y004204D01*
X016453Y004302D02*
X016155Y004302D01*
X016155Y004401D02*
X016453Y004401D01*
X016453Y004499D02*
X016155Y004499D01*
X016155Y004598D02*
X016453Y004598D01*
X016453Y004696D02*
X016155Y004696D01*
X016155Y004795D02*
X016453Y004795D01*
X016453Y004893D02*
X016013Y004893D01*
X016013Y004992D02*
X016453Y004992D01*
X016453Y005090D02*
X016013Y005090D01*
X016326Y005189D02*
X016453Y005189D01*
X016477Y005287D02*
X016516Y005287D01*
X016565Y005386D02*
X016614Y005386D01*
X016606Y005484D02*
X016661Y005484D01*
X016633Y005583D02*
X016633Y005583D01*
X016633Y005681D02*
X016633Y005681D01*
X016621Y005780D02*
X016646Y005780D01*
X016616Y005878D02*
X016687Y005878D01*
X016714Y005977D02*
X016753Y005977D01*
X016813Y006075D02*
X016853Y006075D01*
X016743Y006260D02*
X018063Y006260D01*
X018293Y006490D01*
X018293Y006890D01*
X018548Y006863D02*
X018713Y006863D01*
X018713Y006765D02*
X018548Y006765D01*
X018548Y006666D02*
X018713Y006666D01*
X018781Y006568D02*
X018530Y006568D01*
X018473Y006469D02*
X018880Y006469D01*
X018978Y006371D02*
X018428Y006371D01*
X018330Y006272D02*
X019077Y006272D01*
X019175Y006174D02*
X018231Y006174D01*
X018414Y006075D02*
X018853Y006075D01*
X018753Y005977D02*
X018514Y005977D01*
X018580Y005878D02*
X018687Y005878D01*
X018646Y005780D02*
X018621Y005780D01*
X018633Y005681D02*
X018633Y005681D01*
X018633Y005583D02*
X018633Y005583D01*
X018133Y005650D02*
X017433Y004950D01*
X017433Y004450D01*
X017135Y004499D02*
X016813Y004499D01*
X016813Y004401D02*
X017135Y004401D01*
X017135Y004302D02*
X016813Y004302D01*
X016813Y004204D02*
X017135Y004204D01*
X017135Y004105D02*
X016813Y004105D01*
X016813Y004007D02*
X017150Y004007D01*
X017135Y004598D02*
X016813Y004598D01*
X016813Y004696D02*
X017135Y004696D01*
X017135Y004795D02*
X016813Y004795D01*
X016813Y004893D02*
X017253Y004893D01*
X017253Y004992D02*
X016813Y004992D01*
X016828Y005090D02*
X017319Y005090D01*
X017326Y005189D02*
X017417Y005189D01*
X017477Y005287D02*
X017516Y005287D01*
X017565Y005386D02*
X017614Y005386D01*
X016941Y005189D02*
X016926Y005189D01*
X016133Y005650D02*
X016743Y006260D01*
X017223Y006550D02*
X017563Y006890D01*
X017893Y006890D01*
X018548Y006962D02*
X018713Y006962D01*
X018629Y007060D02*
X018548Y007060D01*
X018842Y007356D02*
X019480Y007356D01*
X019453Y007257D02*
X018941Y007257D01*
X019039Y007159D02*
X019453Y007159D01*
X019453Y007060D02*
X019073Y007060D01*
X019073Y006962D02*
X019463Y006962D01*
X019453Y006863D02*
X019073Y006863D01*
X019093Y006765D02*
X019453Y006765D01*
X019453Y006666D02*
X019192Y006666D01*
X019290Y006568D02*
X019457Y006568D01*
X019389Y006469D02*
X023723Y006469D01*
X023723Y007553D02*
X019935Y007553D01*
X019837Y007651D02*
X022798Y007651D01*
X022753Y007750D02*
X019738Y007750D01*
X019640Y007848D02*
X022753Y007848D01*
X022753Y007947D02*
X019541Y007947D01*
X019426Y007553D02*
X018645Y007553D01*
X018744Y007454D02*
X019525Y007454D01*
X019158Y008341D02*
X017878Y008341D01*
X017853Y008242D02*
X022587Y008242D01*
X022685Y008144D02*
X017831Y008144D01*
X017767Y008045D02*
X022753Y008045D01*
X023033Y008050D02*
X022613Y008470D01*
X019283Y008470D01*
X018933Y008820D01*
X018933Y009520D01*
X018723Y009730D01*
X017653Y009730D01*
X017363Y009621D02*
X017323Y009621D01*
X017323Y009523D02*
X017422Y009523D01*
X017323Y009424D02*
X017582Y009424D01*
X017725Y009424D02*
X018753Y009424D01*
X018753Y009326D02*
X018517Y009326D01*
X018563Y009227D02*
X018753Y009227D01*
X018753Y009129D02*
X018563Y009129D01*
X018563Y009030D02*
X018753Y009030D01*
X018753Y008932D02*
X018563Y008932D01*
X018563Y008833D02*
X018753Y008833D01*
X018764Y008735D02*
X018563Y008735D01*
X018563Y008636D02*
X018863Y008636D01*
X018961Y008538D02*
X018563Y008538D01*
X018183Y008700D02*
X017983Y008700D01*
X017543Y008260D01*
X017143Y008350D02*
X016943Y008150D01*
X015533Y008150D01*
X015358Y008325D01*
X015358Y009155D01*
X015358Y009235D01*
X015363Y009240D01*
X015731Y009523D02*
X016266Y009523D01*
X016358Y009155D02*
X016108Y009155D01*
X015858Y009155D02*
X015858Y008725D01*
X015773Y008640D01*
X016353Y008480D02*
X016358Y008485D01*
X016358Y009155D01*
X016928Y009730D02*
X016551Y010107D01*
X016717Y010176D01*
X016857Y010317D01*
X016933Y010501D01*
X016933Y010699D01*
X016933Y010501D01*
X017009Y010317D01*
X017150Y010176D01*
X017288Y010119D01*
X016963Y009795D01*
X016963Y009695D01*
X016928Y009730D01*
X016938Y009720D02*
X016963Y009720D01*
X016987Y009818D02*
X016840Y009818D01*
X016741Y009917D02*
X017085Y009917D01*
X017184Y010015D02*
X016643Y010015D01*
X016565Y010114D02*
X017282Y010114D01*
X017114Y010212D02*
X016752Y010212D01*
X016851Y010311D02*
X017016Y010311D01*
X016971Y010409D02*
X016895Y010409D01*
X016933Y010508D02*
X016933Y010508D01*
X016933Y010606D02*
X016933Y010606D01*
X016931Y010705D02*
X016935Y010705D01*
X016976Y010803D02*
X016890Y010803D01*
X016839Y010902D02*
X017028Y010902D01*
X017126Y011000D02*
X016825Y011000D01*
X016825Y011099D02*
X017253Y011099D01*
X017253Y011197D02*
X016825Y011197D01*
X016825Y011296D02*
X017253Y011296D01*
X017253Y011394D02*
X016825Y011394D01*
X016933Y011493D02*
X017253Y011493D01*
X017253Y011591D02*
X016942Y011591D01*
X016942Y011690D02*
X017253Y011690D01*
X017253Y011788D02*
X016942Y011788D01*
X016942Y011887D02*
X017253Y011887D01*
X017253Y011985D02*
X016942Y011985D01*
X016942Y012084D02*
X017253Y012084D01*
X017253Y012182D02*
X016942Y012182D01*
X016941Y012281D02*
X017253Y012281D01*
X017253Y012379D02*
X016038Y012379D01*
X016038Y012281D02*
X016350Y012281D01*
X016348Y012182D02*
X016038Y012182D01*
X016038Y012084D02*
X016348Y012084D01*
X016348Y011985D02*
X016038Y011985D01*
X016038Y011887D02*
X016348Y011887D01*
X016348Y011788D02*
X016038Y011788D01*
X016038Y011690D02*
X016348Y011690D01*
X016348Y011591D02*
X016038Y011591D01*
X016038Y011493D02*
X016357Y011493D01*
X016465Y011394D02*
X016038Y011394D01*
X016038Y011296D02*
X016465Y011296D01*
X016465Y011197D02*
X016038Y011197D01*
X016038Y011099D02*
X016330Y011099D01*
X016126Y011000D02*
X016038Y011000D01*
X016028Y010902D02*
X015989Y010902D01*
X015932Y010844D02*
X015891Y010803D01*
X015931Y010705D02*
X015935Y010705D01*
X015933Y010699D02*
X015933Y010501D01*
X015857Y010317D01*
X015770Y010230D01*
X016096Y010230D01*
X016009Y010317D01*
X015933Y010501D01*
X015933Y010699D01*
X015933Y010606D02*
X015933Y010606D01*
X015933Y010508D02*
X015933Y010508D01*
X015895Y010409D02*
X015971Y010409D01*
X016016Y010311D02*
X015851Y010311D01*
X015433Y010600D02*
X015858Y011024D01*
X015858Y013071D01*
X016155Y013069D02*
X017135Y013069D01*
X017135Y013167D02*
X016155Y013167D01*
X016155Y013266D02*
X017135Y013266D01*
X017135Y013364D02*
X016155Y013364D01*
X016152Y013463D02*
X017138Y013463D01*
X017433Y013071D02*
X017433Y013070D01*
X017433Y010600D01*
X017933Y010606D02*
X017933Y010606D01*
X017933Y010699D02*
X017933Y010501D01*
X017857Y010317D01*
X017780Y010240D01*
X018086Y010240D01*
X018009Y010317D01*
X017933Y010501D01*
X017933Y010699D01*
X017931Y010705D02*
X017935Y010705D01*
X017976Y010803D02*
X017890Y010803D01*
X017839Y010902D02*
X018028Y010902D01*
X018126Y011000D02*
X017740Y011000D01*
X017613Y011099D02*
X018330Y011099D01*
X018536Y011099D02*
X019253Y011099D01*
X019253Y011197D02*
X017613Y011197D01*
X017613Y011296D02*
X019253Y011296D01*
X019253Y011394D02*
X017613Y011394D01*
X017613Y011493D02*
X017932Y011493D01*
X017923Y011502D02*
X017999Y011426D01*
X018441Y011426D01*
X018517Y011502D01*
X018517Y012279D01*
X018441Y012355D01*
X017999Y012355D01*
X017923Y012279D01*
X017923Y011502D01*
X017923Y011591D02*
X017613Y011591D01*
X017613Y011690D02*
X017923Y011690D01*
X017923Y011788D02*
X017613Y011788D01*
X017613Y011887D02*
X017923Y011887D01*
X017923Y011985D02*
X017613Y011985D01*
X017613Y012084D02*
X017923Y012084D01*
X017923Y012182D02*
X017613Y012182D01*
X017613Y012281D02*
X017924Y012281D01*
X017613Y012379D02*
X019253Y012379D01*
X019253Y012281D02*
X018515Y012281D01*
X018517Y012182D02*
X019253Y012182D01*
X019253Y012084D02*
X018517Y012084D01*
X018517Y011985D02*
X019253Y011985D01*
X019253Y011887D02*
X018517Y011887D01*
X018517Y011788D02*
X019253Y011788D01*
X019253Y011690D02*
X018517Y011690D01*
X018517Y011591D02*
X019253Y011591D01*
X019253Y011493D02*
X018508Y011493D01*
X018740Y011000D02*
X019126Y011000D01*
X019028Y010902D02*
X018839Y010902D01*
X018890Y010803D02*
X018976Y010803D01*
X018935Y010705D02*
X018931Y010705D01*
X018933Y010699D02*
X018933Y010501D01*
X018857Y010317D01*
X018780Y010240D01*
X019086Y010240D01*
X019009Y010317D01*
X018933Y010501D01*
X018933Y010699D01*
X018933Y010606D02*
X018933Y010606D01*
X018933Y010508D02*
X018933Y010508D01*
X018895Y010409D02*
X018971Y010409D01*
X019016Y010311D02*
X018851Y010311D01*
X019433Y010600D02*
X019433Y012645D01*
X019007Y013071D01*
X019007Y013564D01*
X019243Y013800D01*
X019259Y013561D02*
X020165Y013561D01*
X020114Y013463D02*
X019302Y013463D01*
X019305Y013364D02*
X020114Y013364D01*
X020114Y013266D02*
X019305Y013266D01*
X019305Y013167D02*
X020114Y013167D01*
X020074Y013069D02*
X019305Y013069D01*
X019363Y012970D02*
X019975Y012970D01*
X019877Y012872D02*
X019462Y012872D01*
X019560Y012773D02*
X019778Y012773D01*
X019753Y012675D02*
X019613Y012675D01*
X019613Y012576D02*
X019753Y012576D01*
X019753Y012478D02*
X019613Y012478D01*
X019613Y012379D02*
X019753Y012379D01*
X019753Y012281D02*
X019613Y012281D01*
X019613Y012182D02*
X019753Y012182D01*
X019753Y012084D02*
X019613Y012084D01*
X019613Y011985D02*
X019753Y011985D01*
X019753Y011887D02*
X019613Y011887D01*
X019613Y011788D02*
X019753Y011788D01*
X019753Y011690D02*
X019613Y011690D01*
X019613Y011591D02*
X019753Y011591D01*
X019753Y011493D02*
X019613Y011493D01*
X019613Y011394D02*
X019753Y011394D01*
X019753Y011296D02*
X019613Y011296D01*
X019613Y011197D02*
X019753Y011197D01*
X019753Y011099D02*
X019613Y011099D01*
X019740Y011000D02*
X019753Y011000D01*
X020113Y011296D02*
X021924Y011296D01*
X022023Y011394D02*
X020113Y011394D01*
X020113Y011493D02*
X022121Y011493D01*
X022220Y011591D02*
X020113Y011591D01*
X020113Y011690D02*
X022318Y011690D01*
X022417Y011788D02*
X020113Y011788D01*
X020113Y011887D02*
X022515Y011887D01*
X022614Y011985D02*
X020113Y011985D01*
X020113Y012084D02*
X022712Y012084D01*
X022811Y012182D02*
X020113Y012182D01*
X020113Y012281D02*
X023221Y012281D01*
X023221Y012379D02*
X020113Y012379D01*
X020113Y012478D02*
X023221Y012478D01*
X023221Y012576D02*
X020113Y012576D01*
X020189Y012675D02*
X023221Y012675D01*
X023215Y012773D02*
X023262Y012773D01*
X023283Y012872D02*
X024397Y012872D01*
X024404Y012773D02*
X024463Y012773D01*
X024463Y012675D02*
X024446Y012675D01*
X024446Y012576D02*
X024463Y012576D01*
X024463Y012478D02*
X024446Y012478D01*
X024446Y012379D02*
X024463Y012379D01*
X024463Y012281D02*
X024446Y012281D01*
X024446Y012182D02*
X024463Y012182D01*
X024463Y012084D02*
X024383Y012084D01*
X024383Y011985D02*
X024463Y011985D01*
X024463Y011887D02*
X024294Y011887D01*
X024203Y012050D02*
X024203Y012438D01*
X024207Y012442D01*
X023837Y012478D02*
X023829Y012478D01*
X023829Y012576D02*
X023837Y012576D01*
X023829Y012675D02*
X023837Y012675D01*
X023829Y012773D02*
X023837Y012773D01*
X024299Y012970D02*
X023283Y012970D01*
X023459Y012442D02*
X023459Y012084D01*
X022967Y012084D01*
X021863Y010980D01*
X022138Y011000D02*
X024024Y011000D01*
X023999Y011099D02*
X023668Y011099D01*
X023698Y011128D02*
X023698Y011708D01*
X023621Y011784D01*
X023297Y011784D01*
X023221Y011708D01*
X023221Y011128D01*
X023297Y011052D01*
X023621Y011052D01*
X023698Y011128D01*
X023698Y011197D02*
X023969Y011197D01*
X023969Y011296D02*
X023698Y011296D01*
X023698Y011394D02*
X023969Y011394D01*
X023969Y011493D02*
X023698Y011493D01*
X023698Y011591D02*
X023969Y011591D01*
X023969Y011690D02*
X023698Y011690D01*
X023221Y011690D02*
X022827Y011690D01*
X022926Y011788D02*
X024463Y011788D01*
X024446Y011690D02*
X024448Y011690D01*
X024662Y011394D02*
X025053Y011394D01*
X025053Y011296D02*
X024563Y011296D01*
X024446Y011197D02*
X025053Y011197D01*
X025053Y011099D02*
X024416Y011099D01*
X024384Y011000D02*
X025053Y011000D01*
X025053Y010902D02*
X024384Y010902D01*
X024384Y010803D02*
X025053Y010803D01*
X025053Y010705D02*
X024610Y010705D01*
X024610Y010606D02*
X025053Y010606D01*
X025053Y010508D02*
X024610Y010508D01*
X024610Y010409D02*
X025053Y010409D01*
X025053Y010311D02*
X024610Y010311D01*
X024610Y010212D02*
X025053Y010212D01*
X025053Y010114D02*
X024610Y010114D01*
X024610Y010015D02*
X025053Y010015D01*
X025053Y009917D02*
X024555Y009917D01*
X024449Y009606D02*
X024026Y009606D01*
X023950Y009530D01*
X023950Y008950D01*
X024026Y008874D01*
X024449Y008874D01*
X024525Y008950D01*
X024525Y009530D01*
X024449Y009606D01*
X024525Y009523D02*
X025053Y009523D01*
X025053Y009621D02*
X023726Y009621D01*
X023744Y009616D02*
X023706Y009626D01*
X023558Y009626D01*
X023558Y009269D01*
X023836Y009269D01*
X023836Y009496D01*
X023826Y009534D01*
X023806Y009568D01*
X023779Y009596D01*
X023744Y009616D01*
X023829Y009523D02*
X023950Y009523D01*
X023950Y009424D02*
X023836Y009424D01*
X023836Y009326D02*
X023950Y009326D01*
X023950Y009227D02*
X023558Y009227D01*
X023558Y009211D02*
X023558Y009269D01*
X023500Y009269D01*
X023500Y009626D01*
X023352Y009626D01*
X023314Y009616D01*
X023279Y009596D01*
X023251Y009568D01*
X023232Y009534D01*
X023221Y009496D01*
X023221Y009269D01*
X023500Y009269D01*
X023500Y009211D01*
X023558Y009211D01*
X023836Y009211D01*
X023836Y008984D01*
X023826Y008946D01*
X023806Y008912D01*
X023779Y008884D01*
X023744Y008864D01*
X023706Y008854D01*
X023558Y008854D01*
X023558Y009211D01*
X023500Y009211D02*
X023500Y008854D01*
X023352Y008854D01*
X023314Y008864D01*
X023279Y008884D01*
X023251Y008912D01*
X023232Y008946D01*
X023221Y008984D01*
X023221Y009211D01*
X023500Y009211D01*
X023500Y009227D02*
X022033Y009227D01*
X022033Y009129D02*
X023221Y009129D01*
X023221Y009030D02*
X021993Y009030D01*
X021903Y008932D02*
X023240Y008932D01*
X023500Y008932D02*
X023558Y008932D01*
X023558Y009030D02*
X023500Y009030D01*
X023500Y009129D02*
X023558Y009129D01*
X023836Y009129D02*
X023950Y009129D01*
X023950Y009030D02*
X023836Y009030D01*
X023818Y008932D02*
X023969Y008932D01*
X024083Y008735D02*
X019273Y008735D01*
X019175Y008833D02*
X025053Y008833D01*
X025053Y008735D02*
X024392Y008735D01*
X024507Y008932D02*
X025053Y008932D01*
X025053Y009030D02*
X024525Y009030D01*
X024525Y009129D02*
X025053Y009129D01*
X025053Y009227D02*
X024525Y009227D01*
X024525Y009326D02*
X025053Y009326D01*
X025053Y009424D02*
X024525Y009424D01*
X025053Y009720D02*
X022043Y009720D01*
X022043Y009818D02*
X025053Y009818D01*
X023558Y009621D02*
X023500Y009621D01*
X023500Y009523D02*
X023558Y009523D01*
X023558Y009424D02*
X023500Y009424D01*
X023500Y009326D02*
X023558Y009326D01*
X023221Y009326D02*
X022043Y009326D01*
X022043Y009424D02*
X023221Y009424D01*
X023229Y009523D02*
X022043Y009523D01*
X022043Y009621D02*
X023332Y009621D01*
X023152Y010409D02*
X023052Y010409D01*
X023052Y010508D02*
X023152Y010508D01*
X023152Y010606D02*
X023052Y010606D01*
X023052Y010705D02*
X023152Y010705D01*
X023152Y010803D02*
X023052Y010803D01*
X023251Y011099D02*
X022236Y011099D01*
X022335Y011197D02*
X023221Y011197D01*
X023221Y011296D02*
X022433Y011296D01*
X022532Y011394D02*
X023221Y011394D01*
X023221Y011493D02*
X022630Y011493D01*
X022729Y011591D02*
X023221Y011591D01*
X023402Y011887D02*
X023024Y011887D01*
X023459Y012084D02*
X023573Y011970D01*
X024123Y011970D01*
X024203Y012050D01*
X024823Y012084D02*
X025053Y012084D01*
X025053Y012182D02*
X024823Y012182D01*
X024823Y012281D02*
X025053Y012281D01*
X025053Y012379D02*
X024823Y012379D01*
X024823Y012478D02*
X025053Y012478D01*
X025053Y012576D02*
X024823Y012576D01*
X024823Y012675D02*
X025053Y012675D01*
X025053Y012773D02*
X024823Y012773D01*
X024823Y012872D02*
X025053Y012872D01*
X025053Y012970D02*
X024808Y012970D01*
X024709Y013069D02*
X025053Y013069D01*
X025053Y013167D02*
X024611Y013167D01*
X024512Y013266D02*
X025053Y013266D01*
X025053Y013364D02*
X024649Y013364D01*
X024815Y013463D02*
X025053Y013463D01*
X025053Y013561D02*
X024913Y013561D01*
X025012Y013660D02*
X025053Y013660D01*
X025053Y013758D02*
X025053Y013758D01*
X023712Y013463D02*
X023283Y013463D01*
X023261Y013561D02*
X023613Y013561D01*
X022579Y012773D02*
X022467Y012773D01*
X024823Y011985D02*
X025053Y011985D01*
X025053Y011887D02*
X024823Y011887D01*
X024823Y011788D02*
X025053Y011788D01*
X025053Y011690D02*
X024823Y011690D01*
X024823Y011591D02*
X025053Y011591D01*
X025053Y011493D02*
X024760Y011493D01*
X021683Y010212D02*
X020781Y010212D01*
X019933Y010270D02*
X019723Y010060D01*
X017483Y010060D01*
X017143Y009720D01*
X017143Y008350D01*
X017977Y008439D02*
X019060Y008439D01*
X019113Y008932D02*
X021543Y008932D01*
X021454Y009030D02*
X019113Y009030D01*
X019113Y009129D02*
X021413Y009129D01*
X021413Y009227D02*
X019113Y009227D01*
X018676Y009523D02*
X017884Y009523D01*
X017850Y009326D02*
X017726Y009326D01*
X017513Y009100D02*
X018183Y009100D01*
X018016Y010311D02*
X017851Y010311D01*
X017895Y010409D02*
X017971Y010409D01*
X017933Y010508D02*
X017933Y010508D01*
X016645Y010812D02*
X016433Y010600D01*
X016645Y010812D02*
X016645Y011890D01*
X016038Y012478D02*
X017253Y012478D01*
X017253Y012576D02*
X016038Y012576D01*
X016147Y012675D02*
X017143Y012675D01*
X017135Y012773D02*
X016155Y012773D01*
X016155Y012872D02*
X017135Y012872D01*
X017135Y012970D02*
X016155Y012970D01*
X017613Y012576D02*
X019248Y012576D01*
X019253Y012478D02*
X017613Y012478D01*
X017722Y012675D02*
X018718Y012675D01*
X018710Y012773D02*
X017730Y012773D01*
X017730Y012872D02*
X018710Y012872D01*
X018710Y012970D02*
X017730Y012970D01*
X017730Y013069D02*
X018710Y013069D01*
X018710Y013167D02*
X017730Y013167D01*
X017730Y013266D02*
X018710Y013266D01*
X018710Y013364D02*
X017730Y013364D01*
X017727Y013463D02*
X018713Y013463D01*
X015016Y010311D02*
X014851Y010311D01*
X013677Y011099D02*
X013536Y011099D01*
X012935Y010705D02*
X012931Y010705D01*
X012933Y010699D02*
X012933Y010501D01*
X012857Y010317D01*
X012770Y010230D01*
X013096Y010230D01*
X013009Y010317D01*
X012933Y010501D01*
X012933Y010699D01*
X012933Y010606D02*
X012933Y010606D01*
X012933Y010508D02*
X012933Y010508D01*
X012895Y010409D02*
X012971Y010409D01*
X013016Y010311D02*
X012851Y010311D01*
X012725Y009750D02*
X011415Y008440D01*
X010597Y008440D01*
X010307Y008150D01*
X010693Y007848D02*
X011156Y007848D01*
X011058Y007750D02*
X010642Y007750D01*
X009973Y007750D02*
X009894Y007750D01*
X009559Y008150D02*
X009309Y008400D01*
X010693Y008932D02*
X011228Y008932D01*
X012496Y008538D02*
X012601Y008538D01*
X012595Y008636D02*
X012601Y008636D01*
X013905Y007454D02*
X014411Y007454D01*
X014435Y007356D02*
X013881Y007356D01*
X014403Y006962D02*
X010920Y006962D01*
X010822Y006863D02*
X014403Y006863D01*
X014358Y006765D02*
X010723Y006765D01*
X010625Y006666D02*
X014201Y006666D01*
X014142Y006568D02*
X010526Y006568D01*
X010428Y006469D02*
X014123Y006469D01*
X014135Y006371D02*
X010363Y006371D01*
X010363Y006272D02*
X014183Y006272D01*
X013853Y006075D02*
X013414Y006075D01*
X013514Y005977D02*
X013753Y005977D01*
X013687Y005878D02*
X013580Y005878D01*
X013621Y005780D02*
X013646Y005780D01*
X013633Y005681D02*
X013633Y005681D01*
X013633Y005583D02*
X013633Y005583D01*
X013606Y005484D02*
X013661Y005484D01*
X013652Y005386D02*
X013702Y005386D01*
X013713Y005287D02*
X013789Y005287D01*
X013713Y005189D02*
X013941Y005189D01*
X014153Y005090D02*
X013713Y005090D01*
X013713Y004992D02*
X014153Y004992D01*
X014153Y004893D02*
X013713Y004893D01*
X013713Y004795D02*
X013986Y004795D01*
X013986Y004696D02*
X013713Y004696D01*
X013713Y004598D02*
X013986Y004598D01*
X013986Y004499D02*
X013713Y004499D01*
X013713Y004401D02*
X013986Y004401D01*
X013986Y004302D02*
X013713Y004302D01*
X013713Y004204D02*
X013986Y004204D01*
X013986Y004105D02*
X013713Y004105D01*
X013713Y004007D02*
X014000Y004007D01*
X013353Y004007D02*
X012991Y004007D01*
X013005Y004105D02*
X013353Y004105D01*
X013353Y004204D02*
X013005Y004204D01*
X013005Y004302D02*
X013353Y004302D01*
X013353Y004401D02*
X013005Y004401D01*
X013005Y004499D02*
X013353Y004499D01*
X013353Y004598D02*
X013005Y004598D01*
X013005Y004696D02*
X013353Y004696D01*
X013353Y004795D02*
X013005Y004795D01*
X012888Y004893D02*
X013353Y004893D01*
X013353Y004992D02*
X012888Y004992D01*
X012888Y005090D02*
X013353Y005090D01*
X013340Y005189D02*
X013326Y005189D01*
X013533Y005250D02*
X013133Y005650D01*
X012941Y005189D02*
X012849Y005189D01*
X012789Y005287D02*
X012751Y005287D01*
X012702Y005386D02*
X012652Y005386D01*
X012661Y005484D02*
X012606Y005484D01*
X012633Y005583D02*
X012633Y005583D01*
X012633Y005681D02*
X012633Y005681D01*
X012621Y005780D02*
X012646Y005780D01*
X012687Y005878D02*
X012580Y005878D01*
X012514Y005977D02*
X012753Y005977D01*
X012853Y006075D02*
X012414Y006075D01*
X011853Y006075D02*
X011414Y006075D01*
X011514Y005977D02*
X011753Y005977D01*
X011687Y005878D02*
X011580Y005878D01*
X011621Y005780D02*
X011646Y005780D01*
X011633Y005681D02*
X011633Y005681D01*
X011633Y005583D02*
X011633Y005583D01*
X011606Y005484D02*
X011661Y005484D01*
X011652Y005386D02*
X011702Y005386D01*
X011751Y005287D02*
X011789Y005287D01*
X011849Y005189D02*
X011941Y005189D01*
X011948Y005090D02*
X012439Y005090D01*
X012528Y004992D02*
X012046Y004992D01*
X012113Y004893D02*
X012528Y004893D01*
X012411Y004795D02*
X012113Y004795D01*
X012113Y004696D02*
X012411Y004696D01*
X012411Y004598D02*
X012113Y004598D01*
X012113Y004499D02*
X012411Y004499D01*
X012411Y004401D02*
X012113Y004401D01*
X012113Y004302D02*
X012411Y004302D01*
X012411Y004204D02*
X012113Y004204D01*
X012113Y004105D02*
X012411Y004105D01*
X012426Y004007D02*
X012113Y004007D01*
X012113Y003908D02*
X013353Y003908D01*
X013353Y003810D02*
X012113Y003810D01*
X012113Y003711D02*
X013353Y003711D01*
X013198Y003613D02*
X012218Y003613D01*
X012218Y003514D02*
X013198Y003514D01*
X013198Y003416D02*
X012218Y003416D01*
X012218Y003317D02*
X013198Y003317D01*
X013198Y003219D02*
X012218Y003219D01*
X012218Y003120D02*
X013198Y003120D01*
X013198Y003022D02*
X012218Y003022D01*
X012218Y002923D02*
X013198Y002923D01*
X013214Y002825D02*
X012202Y002825D01*
X011933Y003250D02*
X011933Y004850D01*
X011133Y005650D01*
X011326Y005189D02*
X011340Y005189D01*
X011439Y005090D02*
X007387Y005090D01*
X007387Y004992D02*
X011537Y004992D01*
X011636Y004893D02*
X007387Y004893D01*
X007387Y004795D02*
X011734Y004795D01*
X011753Y004696D02*
X007387Y004696D01*
X007387Y004598D02*
X011753Y004598D01*
X011753Y004499D02*
X007387Y004499D01*
X007387Y004401D02*
X011753Y004401D01*
X011753Y004302D02*
X007540Y004302D01*
X007543Y004204D02*
X011753Y004204D01*
X011753Y004105D02*
X007543Y004105D01*
X007543Y004007D02*
X011753Y004007D01*
X011753Y003908D02*
X007543Y003908D01*
X007543Y003810D02*
X011753Y003810D01*
X011753Y003711D02*
X007543Y003711D01*
X007543Y003613D02*
X011623Y003613D01*
X011623Y003514D02*
X002083Y003514D01*
X002083Y003416D02*
X011623Y003416D01*
X011623Y003317D02*
X003176Y003317D01*
X003414Y003219D02*
X011623Y003219D01*
X011623Y003120D02*
X003512Y003120D01*
X003611Y003022D02*
X011623Y003022D01*
X011623Y002923D02*
X003681Y002923D01*
X003722Y002825D02*
X011639Y002825D01*
X013533Y003250D02*
X013533Y005250D01*
X014133Y005650D02*
X014333Y005450D01*
X014333Y004450D01*
X015833Y004450D02*
X015833Y005350D01*
X016133Y005650D01*
X015633Y005681D02*
X015633Y005681D01*
X015633Y005583D02*
X015633Y005583D01*
X015621Y005780D02*
X015646Y005780D01*
X015687Y005878D02*
X015580Y005878D01*
X015514Y005977D02*
X015753Y005977D01*
X015669Y006360D02*
X015644Y006360D01*
X015678Y006443D01*
X015678Y006567D01*
X015631Y006681D01*
X015622Y006690D01*
X015708Y006690D01*
X015725Y006680D01*
X015764Y006670D01*
X015858Y006670D01*
X015858Y007045D01*
X015858Y007045D01*
X015858Y007420D01*
X015858Y007045D01*
X015858Y007045D01*
X015858Y007495D01*
X016003Y007640D01*
X016373Y007640D01*
X015858Y007356D02*
X015858Y007356D01*
X015858Y007257D02*
X015858Y007257D01*
X015858Y007159D02*
X015858Y007159D01*
X015858Y007060D02*
X015858Y007060D01*
X015858Y007045D02*
X015858Y006670D01*
X015953Y006670D01*
X015988Y006679D01*
X015669Y006360D01*
X015679Y006371D02*
X015648Y006371D01*
X015678Y006469D02*
X015778Y006469D01*
X015876Y006568D02*
X015678Y006568D01*
X015637Y006666D02*
X015975Y006666D01*
X015858Y006765D02*
X015858Y006765D01*
X015858Y006863D02*
X015858Y006863D01*
X015858Y006962D02*
X015858Y006962D01*
X015358Y007045D02*
X015358Y006515D01*
X015368Y006505D01*
X015108Y007045D02*
X015113Y007050D01*
X015113Y007500D01*
X012708Y005075D02*
X012133Y005650D01*
X012326Y005189D02*
X012340Y005189D01*
X012708Y005075D02*
X012708Y004410D01*
X009903Y006568D02*
X007509Y006568D01*
X007410Y006666D02*
X009974Y006666D01*
X010073Y006765D02*
X007312Y006765D01*
X007213Y006863D02*
X010171Y006863D01*
X010270Y006962D02*
X007115Y006962D01*
X007100Y007060D02*
X010368Y007060D01*
X007646Y005780D02*
X007387Y005780D01*
X007387Y005878D02*
X007548Y005878D01*
X007449Y005977D02*
X007387Y005977D01*
X006927Y005977D02*
X005231Y005977D01*
X005231Y006075D02*
X006927Y006075D01*
X006927Y006174D02*
X002083Y006174D01*
X002083Y006272D02*
X006927Y006272D01*
X006927Y006371D02*
X002083Y006371D01*
X002083Y006469D02*
X003466Y006469D01*
X003539Y006439D02*
X003272Y006549D01*
X003068Y006753D01*
X002958Y007020D01*
X002958Y007309D01*
X003068Y007575D01*
X003272Y007779D01*
X003539Y007890D01*
X003828Y007890D01*
X004094Y007779D01*
X004298Y007575D01*
X004409Y007309D01*
X004409Y007020D01*
X004298Y006753D01*
X004094Y006549D01*
X003828Y006439D01*
X003539Y006439D01*
X003254Y006568D02*
X002083Y006568D01*
X002083Y006666D02*
X003155Y006666D01*
X003063Y006765D02*
X002083Y006765D01*
X002083Y006863D02*
X003023Y006863D01*
X002982Y006962D02*
X002083Y006962D01*
X002083Y007060D02*
X002958Y007060D01*
X002958Y007159D02*
X002083Y007159D01*
X002083Y007257D02*
X002958Y007257D01*
X002977Y007356D02*
X002083Y007356D01*
X002083Y007454D02*
X003018Y007454D01*
X003059Y007553D02*
X002083Y007553D01*
X002083Y007651D02*
X003144Y007651D01*
X003243Y007750D02*
X002083Y007750D01*
X002083Y007848D02*
X003438Y007848D01*
X003928Y007848D02*
X005699Y007848D01*
X005699Y007750D02*
X004124Y007750D01*
X004223Y007651D02*
X005699Y007651D01*
X005750Y007553D02*
X004308Y007553D01*
X004349Y007454D02*
X005719Y007454D01*
X005719Y007356D02*
X004389Y007356D01*
X004409Y007257D02*
X005719Y007257D01*
X005719Y007159D02*
X004409Y007159D01*
X004409Y007060D02*
X005779Y007060D01*
X006464Y006962D02*
X004385Y006962D01*
X004344Y006863D02*
X006563Y006863D01*
X006661Y006765D02*
X004303Y006765D01*
X004211Y006666D02*
X006760Y006666D01*
X006858Y006568D02*
X004113Y006568D01*
X003901Y006469D02*
X006927Y006469D01*
X006927Y005878D02*
X005231Y005878D01*
X005231Y005780D02*
X006927Y005780D01*
X006927Y005681D02*
X005231Y005681D01*
X005231Y005583D02*
X006927Y005583D01*
X006927Y005484D02*
X005231Y005484D01*
X005231Y005386D02*
X006927Y005386D01*
X006927Y005287D02*
X005231Y005287D01*
X005231Y005189D02*
X006927Y005189D01*
X006927Y005090D02*
X005231Y005090D01*
X005231Y004992D02*
X006927Y004992D01*
X006927Y004893D02*
X005231Y004893D01*
X005231Y004795D02*
X006927Y004795D01*
X006927Y004696D02*
X005231Y004696D01*
X005231Y004650D02*
X005154Y004574D01*
X002669Y004574D01*
X002593Y004650D01*
X002593Y006096D01*
X002669Y006172D01*
X005154Y006172D01*
X005231Y006096D01*
X005231Y004650D01*
X005178Y004598D02*
X006927Y004598D01*
X006927Y004499D02*
X002083Y004499D01*
X002083Y004401D02*
X006927Y004401D01*
X006409Y003950D02*
X005347Y003950D01*
X004980Y003908D02*
X004570Y003908D01*
X004570Y003900D02*
X004570Y004000D01*
X004906Y004000D01*
X004906Y004206D01*
X004896Y004244D01*
X004876Y004278D01*
X004848Y004306D01*
X004814Y004326D01*
X004776Y004336D01*
X004570Y004336D01*
X004570Y004000D01*
X004470Y004000D01*
X004470Y004336D01*
X004264Y004336D01*
X004226Y004326D01*
X004192Y004306D01*
X004164Y004278D01*
X004144Y004244D01*
X004134Y004206D01*
X004134Y004000D01*
X004470Y004000D01*
X004470Y003900D01*
X004570Y003900D01*
X004906Y003900D01*
X004906Y003694D01*
X004896Y003656D01*
X004876Y003622D01*
X004848Y003594D01*
X004814Y003574D01*
X004776Y003564D01*
X004570Y003564D01*
X004570Y003900D01*
X004570Y003810D02*
X004470Y003810D01*
X004470Y003900D02*
X004470Y003564D01*
X004264Y003564D01*
X004226Y003574D01*
X004192Y003594D01*
X004164Y003622D01*
X004144Y003656D01*
X004134Y003694D01*
X004134Y003900D01*
X004470Y003900D01*
X004470Y003908D02*
X002083Y003908D01*
X002083Y003810D02*
X004134Y003810D01*
X004134Y003711D02*
X002083Y003711D01*
X002083Y003613D02*
X004173Y003613D01*
X004470Y003613D02*
X004570Y003613D01*
X004570Y003711D02*
X004470Y003711D01*
X004470Y004007D02*
X004570Y004007D01*
X004570Y004105D02*
X004470Y004105D01*
X004470Y004204D02*
X004570Y004204D01*
X004570Y004302D02*
X004470Y004302D01*
X004187Y004302D02*
X002083Y004302D01*
X002083Y004204D02*
X004134Y004204D01*
X004134Y004105D02*
X002083Y004105D01*
X002083Y004007D02*
X004134Y004007D01*
X004906Y004007D02*
X004980Y004007D01*
X004980Y004105D02*
X004906Y004105D01*
X004906Y004204D02*
X004980Y004204D01*
X005042Y004302D02*
X004852Y004302D01*
X004906Y003810D02*
X004980Y003810D01*
X004980Y003711D02*
X004906Y003711D01*
X004867Y003613D02*
X005028Y003613D01*
X005665Y003613D02*
X006023Y003613D01*
X006023Y003711D02*
X005713Y003711D01*
X005713Y004204D02*
X006023Y004204D01*
X006026Y004302D02*
X005651Y004302D01*
X003763Y002726D02*
X023452Y002726D01*
X023411Y002628D02*
X003796Y002628D01*
X003796Y002529D02*
X023370Y002529D01*
X023360Y002431D02*
X003796Y002431D01*
X003796Y002332D02*
X023360Y002332D01*
X023360Y002234D02*
X003771Y002234D01*
X003730Y002135D02*
X023368Y002135D01*
X023409Y002037D02*
X003690Y002037D01*
X003630Y001938D02*
X023450Y001938D01*
X023491Y001840D02*
X003532Y001840D01*
X003433Y001741D02*
X023583Y001741D01*
X023682Y001643D02*
X003223Y001643D01*
X002104Y002825D02*
X002083Y002825D01*
X002083Y002923D02*
X002145Y002923D01*
X002083Y003022D02*
X002216Y003022D01*
X002314Y003120D02*
X002083Y003120D01*
X002083Y003219D02*
X002413Y003219D01*
X002651Y003317D02*
X002083Y003317D01*
X002083Y004598D02*
X002645Y004598D01*
X002593Y004696D02*
X002083Y004696D01*
X002083Y004795D02*
X002593Y004795D01*
X002593Y004893D02*
X002083Y004893D01*
X002083Y004992D02*
X002593Y004992D01*
X002593Y005090D02*
X002083Y005090D01*
X002083Y005189D02*
X002593Y005189D01*
X002593Y005287D02*
X002083Y005287D01*
X002083Y005386D02*
X002593Y005386D01*
X002593Y005484D02*
X002083Y005484D01*
X002083Y005583D02*
X002593Y005583D01*
X002593Y005681D02*
X002083Y005681D01*
X002083Y005780D02*
X002593Y005780D01*
X002593Y005878D02*
X002083Y005878D01*
X002083Y005977D02*
X002593Y005977D01*
X002593Y006075D02*
X002083Y006075D01*
X002083Y007947D02*
X005699Y007947D01*
X005740Y008045D02*
X002083Y008045D01*
X002083Y011690D02*
X011603Y011690D01*
X011603Y011788D02*
X002083Y011788D01*
X002083Y011887D02*
X011887Y011887D01*
X011954Y011887D02*
X012533Y011887D01*
X012533Y011985D02*
X012238Y011985D01*
X012238Y011924D02*
X012238Y012245D01*
X012228Y012283D01*
X012208Y012317D01*
X012180Y012345D01*
X012146Y012365D01*
X012108Y012375D01*
X011954Y012375D01*
X011954Y011924D01*
X012238Y011924D01*
X012238Y011788D02*
X012497Y011788D01*
X012398Y011690D02*
X012238Y011690D01*
X012238Y011591D02*
X012300Y011591D01*
X011954Y011591D02*
X011887Y011591D01*
X011887Y011493D02*
X011954Y011493D01*
X011954Y011690D02*
X011887Y011690D01*
X011887Y011788D02*
X011954Y011788D01*
X011954Y011985D02*
X011887Y011985D01*
X011887Y012084D02*
X011954Y012084D01*
X011954Y012182D02*
X011887Y012182D01*
X011887Y012281D02*
X011954Y012281D01*
X012228Y012281D02*
X012533Y012281D01*
X012533Y012379D02*
X002083Y012379D01*
X002083Y012281D02*
X011613Y012281D01*
X011603Y012182D02*
X002083Y012182D01*
X002083Y012084D02*
X011603Y012084D01*
X011603Y011985D02*
X002083Y011985D01*
X002083Y012478D02*
X012533Y012478D01*
X012533Y012576D02*
X002083Y012576D01*
X002083Y012675D02*
X012419Y012675D01*
X012411Y012773D02*
X002083Y012773D01*
X002083Y012872D02*
X012411Y012872D01*
X012411Y012970D02*
X002083Y012970D01*
X002083Y013069D02*
X002670Y013069D01*
X002432Y013167D02*
X002083Y013167D01*
X002083Y013266D02*
X002299Y013266D01*
X002200Y013364D02*
X002083Y013364D01*
X002083Y013463D02*
X002115Y013463D01*
X003701Y014251D02*
X009234Y014251D01*
X009234Y014349D02*
X003660Y014349D01*
X003615Y014448D02*
X009234Y014448D01*
X009958Y014546D02*
X010136Y014546D01*
X010080Y014448D02*
X010006Y014448D01*
X010006Y014349D02*
X010080Y014349D01*
X010080Y014251D02*
X010006Y014251D01*
X010757Y014546D02*
X010923Y014546D01*
X010923Y014448D02*
X010813Y014448D01*
X012238Y012182D02*
X012533Y012182D01*
X012533Y012084D02*
X012238Y012084D01*
X011935Y010705D02*
X011931Y010705D01*
X019033Y004550D02*
X020133Y005650D01*
X019941Y005189D02*
X019926Y005189D01*
X019033Y004550D02*
X019033Y004450D01*
X019305Y004302D02*
X021104Y004302D01*
X021104Y004204D02*
X019305Y004204D01*
X019305Y004105D02*
X021109Y004105D01*
X021831Y004105D02*
X021935Y004105D01*
X021930Y004204D02*
X021836Y004204D01*
X021836Y004302D02*
X021930Y004302D01*
X021930Y004401D02*
X021836Y004401D01*
X021836Y004499D02*
X021930Y004499D01*
X021930Y004598D02*
X021836Y004598D01*
X021830Y004696D02*
X021936Y004696D01*
X021663Y004795D02*
X022819Y004795D01*
X022773Y004696D02*
X022657Y004696D01*
X022663Y004598D02*
X022773Y004598D01*
X023159Y004400D02*
X022297Y004400D01*
X022663Y004204D02*
X022773Y004204D01*
X022773Y004105D02*
X022658Y004105D01*
X022818Y004007D02*
X019290Y004007D01*
X021663Y004893D02*
X023723Y004893D01*
X023723Y004992D02*
X021663Y004992D01*
X021663Y005090D02*
X023723Y005090D01*
X023723Y005189D02*
X021663Y005189D01*
X021663Y005287D02*
X023723Y005287D01*
X024083Y005287D02*
X025053Y005287D01*
X025053Y005189D02*
X024083Y005189D01*
X024083Y005090D02*
X025053Y005090D01*
X025053Y004992D02*
X024083Y004992D01*
X024083Y004893D02*
X025053Y004893D01*
X025053Y004795D02*
X024248Y004795D01*
X024293Y004696D02*
X025053Y004696D01*
X025053Y004598D02*
X024293Y004598D01*
X024293Y004499D02*
X025053Y004499D01*
X025053Y004401D02*
X024293Y004401D01*
X024293Y004302D02*
X025053Y004302D01*
X025053Y004204D02*
X024293Y004204D01*
X024293Y004105D02*
X025053Y004105D01*
X025053Y004007D02*
X024249Y004007D01*
X023566Y004007D02*
X023501Y004007D01*
X024644Y003120D02*
X025053Y003120D01*
X025053Y003022D02*
X024801Y003022D01*
X024899Y002923D02*
X025053Y002923D01*
X025053Y002825D02*
X024994Y002825D01*
X025035Y002726D02*
X025053Y002726D01*
X023567Y004795D02*
X023500Y004795D01*
X023723Y007651D02*
X023268Y007651D01*
X023313Y007750D02*
X023723Y007750D01*
X023723Y007848D02*
X023313Y007848D01*
X023313Y007947D02*
X023723Y007947D01*
X023723Y008045D02*
X023313Y008045D01*
X023313Y008144D02*
X023723Y008144D01*
X023723Y008242D02*
X023313Y008242D01*
X023313Y008341D02*
X023723Y008341D01*
X023788Y008439D02*
X023278Y008439D01*
X022800Y008538D02*
X023886Y008538D01*
X023985Y008636D02*
X022702Y008636D01*
X024083Y008144D02*
X024233Y008144D01*
X024233Y008242D02*
X024100Y008242D01*
X024198Y008341D02*
X024233Y008341D01*
X024805Y008439D02*
X025053Y008439D01*
X025053Y008341D02*
X024833Y008341D01*
X024833Y008242D02*
X025053Y008242D01*
X025053Y008144D02*
X024833Y008144D01*
D29*
X021723Y009190D03*
X021073Y006780D03*
X017543Y008260D03*
X017513Y009100D03*
X017653Y009730D03*
X015773Y008640D03*
X016353Y008480D03*
X015203Y007940D03*
X014633Y007670D03*
X014203Y008440D03*
X016373Y007640D03*
X015368Y006505D03*
X014433Y006460D03*
D30*
X013618Y008440D02*
X013623Y008446D01*
X013623Y008820D01*
X013463Y008980D01*
X012613Y008980D01*
X010133Y006500D01*
X010133Y005650D01*
X008101Y005650D01*
X007157Y006594D01*
X006439Y007312D01*
X007157Y006594D02*
X007157Y003950D01*
D31*
X019007Y004410D02*
X019007Y004524D01*
M02*
