G75*
G70*
%OFA0B0*%
%FSLAX24Y24*%
%IPPOS*%
%LPD*%
%AMOC8*
5,1,8,0,0,1.08239X$1,22.5*
%
%ADD10C,0.0966*%
%ADD11R,0.0250X0.0550*%
%ADD12R,0.0317X0.0572*%
%ADD13R,0.0651X0.0730*%
%ADD14R,0.0415X0.0572*%
%ADD15R,0.0400X0.0700*%
%ADD16R,0.0350X0.0600*%
%ADD17R,0.0600X0.0350*%
%ADD18R,0.0572X0.0572*%
%ADD19C,0.0840*%
%ADD20R,0.0435X0.0769*%
%ADD21R,0.2478X0.1439*%
%ADD22R,0.1281X0.0376*%
%ADD23C,0.0651*%
%ADD24R,0.0572X0.0415*%
%ADD25R,0.0612X0.0691*%
%ADD26C,0.0460*%
D10*
X002913Y002470D03*
X002873Y013940D03*
X024263Y014160D03*
X024243Y002330D03*
D11*
X016858Y007045D03*
X016608Y007045D03*
X016358Y007045D03*
X016108Y007045D03*
X015858Y007045D03*
X015608Y007045D03*
X015358Y007045D03*
X015108Y007045D03*
X014858Y007045D03*
X014608Y007045D03*
X014608Y009155D03*
X014858Y009155D03*
X015108Y009155D03*
X015358Y009155D03*
X015608Y009155D03*
X015858Y009155D03*
X016108Y009155D03*
X016358Y009155D03*
X016608Y009155D03*
X016858Y009155D03*
D12*
X023459Y011418D03*
X024207Y011418D03*
X024207Y012442D03*
X023833Y012442D03*
X023459Y012442D03*
D13*
X023102Y010340D03*
X024204Y010340D03*
D14*
X024238Y009240D03*
X023529Y009240D03*
X013618Y008440D03*
X012909Y008440D03*
X012909Y007670D03*
X013618Y007670D03*
D15*
X023033Y008050D03*
X024533Y008050D03*
X024533Y005850D03*
X023033Y005850D03*
D16*
X018293Y006890D03*
X017893Y006890D03*
X013783Y014200D03*
X013383Y014200D03*
D17*
X018183Y009100D03*
X018183Y008700D03*
X019833Y007150D03*
X019833Y006750D03*
D18*
X021470Y004400D03*
X022297Y004400D03*
X021307Y013220D03*
X020480Y013220D03*
X010447Y014200D03*
X009620Y014200D03*
X005347Y003950D03*
X004520Y003950D03*
D19*
X010133Y005650D03*
X011133Y005650D03*
X012133Y005650D03*
X013133Y005650D03*
X014133Y005650D03*
X015133Y005650D03*
X016133Y005650D03*
X017133Y005650D03*
X018133Y005650D03*
X019133Y005650D03*
X020133Y005650D03*
X020433Y010600D03*
X019433Y010600D03*
X018433Y010600D03*
X017433Y010600D03*
X016433Y010600D03*
X015433Y010600D03*
X014433Y010600D03*
X013433Y010600D03*
X012433Y010600D03*
X011433Y010600D03*
X010433Y010600D03*
D20*
X011921Y011890D03*
X013496Y011890D03*
X015070Y011890D03*
X014283Y013071D03*
X015858Y013071D03*
X016645Y011890D03*
X018220Y011890D03*
X019007Y013071D03*
X017433Y013071D03*
X012708Y013071D03*
X012708Y004410D03*
X014283Y004410D03*
X015858Y004410D03*
X017433Y004410D03*
X019007Y004410D03*
X018220Y003229D03*
X016645Y003229D03*
X015070Y003229D03*
X013496Y003229D03*
X011921Y003229D03*
D21*
X003912Y005373D03*
X003912Y010727D03*
D22*
X006439Y008788D03*
X006439Y008296D03*
X006439Y007804D03*
X006439Y007312D03*
D23*
X003683Y007164D03*
X003683Y008936D03*
D24*
X008283Y008996D03*
X008283Y009704D03*
X008283Y008104D03*
X008283Y007396D03*
D25*
X009559Y008150D03*
X010307Y008150D03*
X010307Y009050D03*
X009559Y009050D03*
X011309Y014200D03*
X012057Y014200D03*
X022149Y013190D03*
X022897Y013190D03*
X023159Y004400D03*
X023907Y004400D03*
X007157Y003950D03*
X006409Y003950D03*
D26*
X014203Y008440D03*
X015203Y007940D03*
X014633Y007670D03*
X014433Y006460D03*
X015368Y006505D03*
X016373Y007640D03*
X017543Y008260D03*
X017513Y009100D03*
X017653Y009730D03*
X015773Y008640D03*
X016353Y008480D03*
X021073Y006780D03*
X021723Y009190D03*
M02*
